<?xml version="1.0" encoding="utf-8"?>
<!-- Generator: Adobe Illustrator 23.0.6, SVG Export Plug-In . SVG Version: 6.00 Build 0)  -->
<svg version="1.1" id="Calque_1" xmlns="http://www.w3.org/2000/svg" xmlns:xlink="http://www.w3.org/1999/xlink" x="0px" y="0px"
	 viewBox="0 0 359.6 115.7" style="enable-background:new 0 0 359.6 115.7;" xml:space="preserve">
<style type="text/css">
	.st0{fill:#FFFFFF;}
	.st1{fill-rule:evenodd;clip-rule:evenodd;fill:#7C8618;}
	.st2{fill-rule:evenodd;clip-rule:evenodd;fill:#338193;}
</style>
<path class="st0" d="M20.4,26.6h2.3l10.9,25.7l11-25.7h2.2L34.6,54.8h-1.8L20.4,26.6z"/>
<path class="st0" d="M53.1,26.6h2.1v27.9h-2.1C53.1,54.6,53.1,26.6,53.1,26.6z"/>
<path class="st0" d="M63.7,26.6h2.1v26h16.4v1.9H63.7V26.6z"/>
<path class="st0" d="M88.4,26.6h2.1v26h16.4v1.9H88.4V26.6z"/>
<path class="st0" d="M113.1,26.6H133v1.9h-17.8v11h16v1.9h-16v11.2h18v1.9h-20.1V26.6z"/>
<path class="st0" d="M151.9,26.6h9.3c8.8,0,14.9,6,14.9,13.9v0.1c0,7.9-6.1,14-14.9,14h-9.3V26.6z M153.9,28.5v24.1h7.2
	c7.8,0,12.7-5.3,12.7-12v-0.1c0-6.6-4.9-12.1-12.7-12.1L153.9,28.5L153.9,28.5z"/>
<path class="st0" d="M183.1,26.6H203v1.9h-17.8v11h16v1.9h-16v11.2h18v1.9h-20.1V26.6z"/>
<path class="st0" d="M0,94.2V94c0-11.9,8.9-21.6,21.6-21.6c7.7,0,12.4,2.7,16.4,6.5l-4.7,5.4c-3.4-3.1-6.9-5.2-11.7-5.2
	c-8,0-13.8,6.6-13.8,14.8v0.1c0,8.2,5.8,14.9,13.8,14.9c5.1,0,8.4-2.1,12-5.4l4.7,4.8c-4.4,4.6-9.1,7.4-17,7.4
	C9.1,115.7,0,106.2,0,94.2z"/>
<path class="st0" d="M60.8,72.8h6.8L86.1,115h-7.8L74,104.9H54.2L49.9,115h-7.5L60.8,72.8z M71.3,98.4l-7.2-16.8l-7.2,16.8H71.3z"/>
<path class="st0" d="M93.2,73.1h16.5c9.8,0,15.9,5.6,15.9,14v0.1c0,9.4-7.5,14.3-16.8,14.3h-8.3V115h-7.4
	C93.2,115,93.2,73.1,93.2,73.1z M109.2,94.9c5.6,0,9-3.1,9-7.5v-0.1c0-4.9-3.5-7.5-9-7.5h-8.6v15.1L109.2,94.9L109.2,94.9z"/>
<path class="st0" d="M131.2,93.1h17.7v7.1h-17.7V93.1z"/>
<path class="st0" d="M154.8,108.9l4.4-5.3c4,3.5,8,5.4,13.2,5.4c4.5,0,7.4-2.1,7.4-5.3v-0.1c0-3-1.7-4.6-9.4-6.4
	c-8.9-2.2-13.9-4.8-13.9-12.5v-0.1c0-7.2,6-12.1,14.3-12.1c6.1,0,10.9,1.8,15.2,5.3l-3.9,5.6c-3.8-2.8-7.5-4.3-11.4-4.3
	c-4.3,0-6.8,2.2-6.8,5v0.1c0,3.2,1.9,4.7,9.9,6.6c8.9,2.2,13.5,5.3,13.5,12.3v0.1c0,7.8-6.2,12.5-14.9,12.5
	C165.9,115.6,159.8,113.4,154.8,108.9z"/>
<path class="st0" d="M209.8,72.8h6.8l18.4,42.2h-7.8l-4.3-10.1h-19.8l-4.3,10.1h-7.5L209.8,72.8z M220.3,98.4l-7.2-16.8l-7.2,16.8
	H220.3z"/>
<path class="st0" d="M242.2,73.1h6.8l22.4,29v-29h7.2V115h-6.2l-23.1-29.8V115h-7.2V73.1z"/>
<path class="st0" d="M299.8,79.9h-13.3v-6.8h34v6.8h-13.3v35h-7.4L299.8,79.9L299.8,79.9z"/>
<path class="st0" d="M328.2,73.1h31v6.6h-23.7v10.9h21v6.6h-21v11.2h24v6.6h-31.3V73.1z M345.8,59.8l6.6,2.9l-7.3,6.9h-5.6
	L345.8,59.8z"/>
<path class="st0" d="M288.9,17.6l-0.6-3.2c-0.1-0.4-0.4-0.7-0.8-0.7l-2.1-0.1c-0.5,0-0.9,0.3-0.9,0.8l-0.2,3.1l4.5,0.5
	C288.9,17.8,288.9,17.7,288.9,17.6z"/>
<path class="st0" d="M296.9,18.5l-0.5-2.8c-0.1-0.3-0.4-0.6-0.7-0.6l-1.8-0.1c-0.4,0-0.7,0.3-0.8,0.7l-0.2,2.6l3.9,0.4
	C296.9,18.7,296.9,18.6,296.9,18.5z"/>
<path class="st0" d="M303.3,19.3l-0.4-2.4c0-0.3-0.3-0.5-0.6-0.5l-1.5-0.1c-0.3,0-0.6,0.3-0.7,0.6l-0.1,2.3l3.3,0.4
	C303.3,19.5,303.3,19.4,303.3,19.3z"/>
<path class="st0" d="M278.1,23.4l0.5-10.1c0-0.3-0.1-0.5-0.3-0.7c-0.2-0.2-0.4-0.3-0.7-0.2L271,13c-0.4,0-0.8,0.4-0.8,0.8l-0.2,2.5
	l-3.6,0.4v-2.5c0-0.3-0.1-0.5-0.3-0.6s-0.4-0.2-0.7-0.2l-3.8,0.6c-0.3,0.1-0.6,0.3-0.7,0.6l-1,2.9l-1.3,0.2l0.1-1.8
	c0-0.3-0.1-0.5-0.3-0.7c-0.2-0.2-0.5-0.3-0.7-0.2l-3.1,0.6c-0.3,0.1-0.5,0.3-0.6,0.5l-3.1,7.9h0c1.9-0.4,4.1-0.8,6.8-0.9
	C266.5,22.6,273.5,23,278.1,23.4z"/>
<path class="st1" d="M317.3,29.6c-1.7,0.1-4,0.1-5.2,0.2c-0.4,0-0.5,0.1-1.3,0.1c-0.8,0-1.3,0.1-2.2,0.1c0.1,0,0.4,0,0.4,0
	c-0.3,0-0.2,0-0.5,0c-2,0.1-4.6,0.4-6.9,0.5c-0.5,0-0.8,0.1-1.3,0.1c0,0,0.9-0.1,1.2-0.1c-1.7,0.1-3.2,0.3-4.9,0.5
	c-0.2,0-0.5,0-0.6,0c2-0.4,5.1-0.5,7.8-0.7c0.8,0,1.4-0.1,2-0.2c0.2,0,0.6,0,0.8,0c0.5,0,0.6-0.1,1.2-0.1c1.1,0,2.8-0.1,3.7-0.2
	c0.2,0,0,0,0.2,0c0.3,0,0.4,0,0.6,0c0.7,0,1.5,0,2.3,0c1.6-0.1,2.3-0.1,3.9-0.2c-0.1,0,0.9,0,1.3,0c-0.1,0,0.8,0,1.4,0
	c-0.7,0,2,0,2.3-0.1c-0.8,0-1.6,0-2.2,0c0.1,0,0.7,0,0.9,0c-0.3,0-0.6,0-0.8,0c-1.1,0-2.2,0-3.3,0c-0.3,0-0.8,0-1.3,0
	c0.5,0,1,0,1.4,0c1.7,0,3.9,0,5.1-0.1c-2.1,0-3.6,0-5.7,0.1c-1,0.1-3.6,0.1-5.5,0.2c-0.6,0-1.6,0.1-2.1,0.1c-1,0.1-2.4,0.1-3.3,0.2
	c-0.5,0-1,0.1-1.6,0.1c-0.4,0-0.9,0.1-1.3,0c0.4,0,0.9,0,0.9-0.1c-0.3,0-0.9,0.1-1.4,0c-0.2,0,0.5,0,0.2-0.1c-0.6,0-1.6,0.1-2.3,0.2
	c0.8,0,1.3-0.1,2-0.1c-1.9,0.1-4.3,0.4-6.4,0.6c-1,0.1-2,0.3-2.8,0.3c-0.1,0,0.2,0,0.1-0.1c-0.4,0-1.4,0.1-0.9,0.2
	c-0.5,0-0.8,0.1-1,0.1c0.2-0.1,0.8-0.1,0.6-0.2c0.5-0.1,1.3-0.2,1.5-0.3c-1,0-1.2,0.2-1.9,0.2c-0.1,0,0.1-0.1-0.2-0.1
	c-0.3,0,0.2,0.1,0,0.1c-0.9,0.1-1.5,0.3-2.4,0.3c-0.2,0,0.1-0.1-0.1-0.1c0.4,0,1-0.1,1-0.2c-1.4,0.2-3.1,0.3-4.8,0.4
	c2.5-0.6,6.4-0.7,9-1.1c-0.9,0.1-1.8,0.1-2.4,0.2c0.1-0.1,0.8-0.2,1.4-0.3c1.3-0.1,3-0.3,4.3-0.3c0.1,0,0,0,0.2-0.1
	c2.5-0.2,5.4-0.4,7.4-0.4c1.9,0,4,0,5.9,0c0.7,0,1.5,0,2.2,0c2.5,0,4.5,0,6.4,0c-1.7,0-3.5,0-5.2,0c-0.5,0-1.2,0-1.9,0
	c2.9,0,5.3,0,7.5-0.1c-0.4,0-0.8,0-1.2,0c-0.3,0,0.2,0,0,0c-0.8,0-1.5,0-2.2,0c-0.4,0-0.8,0-1.4,0c1.3,0,2,0,3.2,0
	c0.7-0.1,2.3,0,3.6,0c1,0,1.7,0,2.8,0c0.1,0,1.4,0,1.6,0c-0.5,0-1.1,0-1.6-0.1c-0.2,0,0,0-0.1,0c-1.6,0-3.9-0.1-5.8-0.1
	c0.1,0,0.3,0,0.1,0c-0.2,0-0.2,0-0.4,0c0,0,0.4,0,0.2,0c-0.4,0-0.8,0-1.3,0c-0.2,0,0.1,0-0.2,0c-0.3,0-0.5,0-0.8,0
	c-0.7,0-1.7,0-2.3-0.1c1.3,0,2.3,0,3.6,0c-0.6,0-1.3,0-1.9-0.1c-0.8,0-1.8,0-2.6-0.1c0.7,0,1.8,0,2.1,0c-0.3,0-0.8,0-0.6,0
	c-2.1-0.1-4.4,0-6.3-0.2c-1.1,0-2.8,0-4,0c-0.2,0-0.3-0.1-0.5-0.1c-3.7,0-7.7,0-10.9-0.1c0,0,0.1,0.1-0.1,0.1
	c-0.1-0.1-0.5,0-0.6-0.1c-1.5,0.1-2.8-0.1-4.4,0c-0.1,0-0.2,0-0.3-0.1c-0.5,0.1-1.1,0-1.7,0c-0.3-0.1-0.8,0-0.9-0.2
	c0.2-0.1,0.9-0.1,1.1-0.2c0-0.1-0.3-0.2,0-0.3c0.6,0.1,1.2,0,1.9,0c0.2,0,0,0,0.1,0.1c2.7,0.1,5.4-0.4,7.8,0c0.2,0-0.1-0.1,0.1-0.1
	c1.1,0,2.7,0.1,3.5,0c-0.2,0-0.3,0-0.4,0c0-0.1,0.6,0,1,0c0.1,0-0.2,0-0.2-0.1c0.2,0,0.3,0,0.3-0.1c2.3,0.1,5.4,0.4,7.3,0.4
	c0.2,0.1,0.4,0.1,0.7,0.1c-0.1-0.1-0.3,0-0.4-0.1c0.5,0,1,0,1.4,0.1c0.5,0,2.1,0.1,2.8,0c-0.3-0.1,0.3,0,0.5-0.1
	c-0.1-0.1-0.5,0-0.6-0.1c0.2,0,0.5,0,0.6,0.1c0.9,0,2.3,0.1,3.5,0.2c0.2,0,0.3,0,0.5,0c0.4,0,0.9,0.1,1.3,0.1
	c1.6,0.1,3.4,0.2,4.4,0.3c-1.5-0.1-3.1-0.2-4.7-0.3c-0.6-0.1-1.7-0.1-2.3-0.2c-0.1-0.1,0.7,0,0.9,0c-0.4-0.1-0.9,0-1.3-0.1
	c2.4,0.1,4.6,0.3,7.1,0.5c1.3,0.1,2.8,0.2,3.6,0.3c0.1,0,0.1,0,0.2,0c1.6,0.1,3.6,0.3,4.4,0.3c-0.7-0.1-1.4-0.1-2.1-0.2
	c-0.5,0-1.1-0.1-1.8-0.1c-0.1,0,0.3,0,0.1,0c-0.3,0-0.2,0-0.4,0c-0.1,0-0.3,0-0.4,0c0,0-0.2,0-0.2,0c-0.7-0.1-1-0.1-1.7-0.1
	c-0.6,0-1.2-0.1-1.8-0.2c-0.7,0-1.3-0.1-2-0.1c0,0-0.1,0-0.1,0c0,0,0,0,0,0c-0.1,0-0.2,0-0.3,0c-0.8,0-2.5-0.1-3.6-0.2
	c0.4,0,1.8,0.1,2,0.1c-2.9-0.2-6-0.4-8.4-0.6c1.1,0,2.7,0.2,4,0.2c-0.6-0.1-0.9-0.1-1.5-0.1c0,0,0-0.1,0-0.1c0.5,0,0.9,0.1,1.3,0.1
	c-0.2,0-0.4,0-0.4,0c0.8,0,1.9,0.2,2.6,0.2c-0.1,0-0.2,0-0.2-0.1c0.3,0,0.9,0.1,0.9,0c-1.8-0.2-3.7-0.4-5.4-0.5
	c-1.1-0.1-1.9-0.2-2.5-0.2c-0.4-0.1-1-0.1-1.6-0.2c0.1-0.1,0.9,0.1,1.1,0c-1.4-0.3-2.9-0.2-4.3-0.5c0.4,0,0.9,0.1,1.3,0.1
	c0-0.1-0.3-0.1-0.5-0.1c0.1,0-0.2-0.1-0.4-0.1c-0.2,0,0.2,0.1-0.1,0c-0.2,0-0.3,0-0.6,0c-0.1,0,0,0-0.2-0.1
	c-1.5-0.1-4.1-0.4-6.1-0.6c1.6,0,3.3,0.2,4.8,0.4c0.1,0,0.1,0,0.2,0.1c0,0,0.1,0,0.1,0c1.1,0.1,2,0.2,2.9,0.3c0,0-0.2,0-0.2,0
	c0.4,0,0.7,0.1,1,0.1c-0.3,0-0.5-0.1-0.5-0.1c0-0.1,0.5,0,0.6,0c0.4,0,0.8,0.1,1.2,0.1c0.1,0.1,0,0.1,0.2,0.1c0,0-0.1-0.1,0-0.1
	c0.2,0,0.3,0.1,0.4,0.2c-0.3,0-0.3,0-0.6,0c1.4,0.2,2.8,0.3,4.1,0.4c2,0.2,4.3,0.5,6.1,0.6c0.9,0.1,2.1,0.2,3.1,0.3
	c0.3,0,0.5,0.1,0.8,0.1c0.7,0.1,1.2,0.1,2,0.2c1.3,0.2,2.8,0.3,3.7,0.4c-0.6-0.1-1.3-0.1-1.8-0.2c0.4,0,0.8,0.1,1.2,0.1
	c-0.3,0-0.4-0.1-0.6-0.1c-0.3-0.1,0.3,0-0.1,0c-0.4,0-1.1-0.1-1.6-0.1c-0.1,0-1,0-1.6-0.1c0.1,0,1,0.1,0.8,0c0,0-0.3,0-0.4,0
	c0.1,0,0.7,0,0.6,0c-0.5,0-1.2-0.1-1.4-0.1c-0.1,0,0,0-0.1,0c-0.4,0-1.5-0.1-2.2-0.2c-0.1,0,0.3,0,0.1,0c-0.5-0.1-1.2-0.1-1.7-0.2
	c0.1,0,1.2,0.1,1.2,0.1c0.8,0.1,1.5,0.1,1.6,0.1c-2-0.2-3.5-0.3-5.7-0.6c0,0,0.2,0,0.2,0c0.2,0.1,0.6,0.1,0.6,0.1
	c0.4,0.1,0.3,0,0.7,0.1c-0.1,0-0.2-0.1-0.1,0c0.2,0,0,0,0.3,0.1c0.1,0,0.2,0,0.3,0c0,0-0.2-0.1,0,0c0.1,0,0,0,0.1,0
	c0.3,0,1.1,0.1,1.1,0.1c-0.3,0-0.9-0.1-1-0.1c-0.2-0.1-0.3-0.1-0.5-0.1c-0.1,0,0.1,0-0.1,0c-0.1,0-0.1,0-0.2,0
	c-0.4,0-0.9-0.1-1.3-0.1c-3.5-0.4-7.4-0.8-11.4-1.3c-0.4,0-1-0.1-1.5-0.1c-1.1-0.1-2.4-0.2-3.7-0.4c0.3-0.1,1.2,0,1.7,0.1
	c-1-0.2-2.4-0.3-3.6-0.4c0.2,0.1,0.6,0.1,1,0.2c-0.2,0.1-1.1-0.1-1.3-0.1c-1.1-0.1-2.6-0.2-3.4-0.4c-0.9-0.1-2.1-0.1-2.8-0.3
	c0.7,0,1.4,0.1,1.9,0.1c-2-0.3-4.5-0.5-6.5-0.7c-0.3,0-0.6-0.1-0.9,0c0.3,0,1.3,0.1,1.7,0.2c-0.6,0.1-1.2,0-1.7,0
	c-0.5,0-1.1,0-1.6-0.1c-0.5,0-0.8-0.1-1.2-0.2c-0.7-0.1-1.7-0.1-2.6-0.1c-0.6,0-0.7-0.2-1.1-0.2c-0.2,0-0.6,0-0.9,0
	c-0.5,0-0.9-0.1-1.5-0.1c0,0,0-0.1,0-0.1c-1.3,0-1.2-0.3-2.1-0.3c0-0.1-0.8-0.1-1.4-0.2c-0.6,0-1-0.2-1.9,0c0.1,0,0.7,0,0.5,0.1
	c-0.7,0.1-0.8,0-1.3,0c-0.2,0-0.6,0.1-0.9,0.1c-0.5,0-0.6,0-0.8-0.1c0.1,0,0.2,0,0.3-0.1c-0.6,0-0.9,0-1.3-0.1c-0.8-0.1-2.2,0-3.2,0
	c-0.3,0-0.6-0.1-1.3,0.1c0.5,0,1.6-0.1,1.1,0.2c-0.8,0-1.3,0-2.3,0c0,0-0.1-0.1,0.1-0.2c-0.2,0-0.4,0-0.6,0c0-0.1,0-0.1,0.1-0.2
	c-0.6-0.1-1.7,0-2.5,0c-0.7,0-0.6-0.2-1.6-0.1c0.3-0.2-0.2-0.1-0.5-0.1c-1.5,0-3.3,0-5.3,0.3c-1.2,0.1-2,0.2-3.2,0.3
	c-1,0.1-1.8,0.2-2.9,0.3c0.2-0.1,0.4-0.1,0.6-0.2c-0.3,0-0.8,0.2-1.1,0.3c-0.3,0,0.3-0.1,0.1-0.1c-1.4,0.4-2.1,0.4-1.5,0.2
	c0.4-0.1,0.1,0,0.9-0.2c-0.2,0-0.4,0.1,0-0.1c0.5,0,1.8-0.2,2.1-0.2c-0.9,0.2-0.4,0-1.3,0.2c0.1,0,0.3,0.1,1.5-0.2
	c-0.3,0.1-0.8,0.2-0.6,0.2c0.5-0.1,0.5-0.1,0.6-0.2c0.4-0.1,1.1-0.2,0.7,0c-0.1,0-0.2,0-0.6,0.1c0,0,0.3,0,0.8-0.1
	c0.2-0.1-0.4,0,0.1-0.1c2.4-0.2,5.5-0.5,7.4-0.5c-0.9,0.1-1.6,0.1-2,0.1c-1.5,0.2-2,0.1-3.7,0.4c2.2-0.2,5-0.4,7.7-0.5
	c-0.1-0.1-1.7,0.1-1.8,0c1.6-0.2,2.3-0.2,3.3-0.2c0.3-0.1-0.6,0-0.9,0c-0.6,0-2.2,0-3.5,0.1c-3.1,0.1-5.4,0.2-8.8,0.6
	c-1.1,0-3.6,0.4-5.6,0.8c-1.7,0.3-3.1,0.5-4.7,0.9c-1.6,0.4,0.4-0.6-4.3,1.1c-0.7,0.3-0.3,0.2-1,0.4c-0.1,0-0.2,0.1-0.5,0.2
	c0.1,0,0.5-0.1,0.3,0c-1.1,0.5-1.7,0.8-2.4,1.1c-6.3,3-13.7,9.6-12.3,12.4c-0.2,0.1-0.2,0.4-0.3,0.6c0,0.5,0.2,0.9,0.6,1.1
	c0.1,0.7,0.3,1.5,0.9,2c-0.4,0.1-0.8,0.2-1.4,0.4c0.5,0,1.3-0.3,1.8-0.2c0.1,0.2,0.3,0.2,0.4,0.4c-0.2,0.5-1.3,0.8-0.5,1.4
	c-0.2,0.2,0,0.4-0.3,0.5c0.1,0.1,0.3,0.2,0.5,0.3c0.3,0,0.5,0,0.8,0c0.3,0.2,0.7,0.2,1.1,0.3c0.1,0.1-0.5,0-0.3,0.1
	c1.1-0.3,1.9-0.1,3.3-0.5c1.5,0.3,3.1,0.4,4.6,0.1c0.6,0.1,1.2-0.1,1.8,0.1c-0.1,0.1-0.3,0.1-0.3,0.2c0.8,0.2,1.5,0,2.2,0.2
	c-0.7,0.1-1.5,0-1.8,0.2c0.7,0.2,1.3,0.1,2,0.2c0.3,0.1,0,0.1,0.3,0.2c0.4,0,0.2-0.1,0.4-0.1c1.3,0.1,2-0.3,3.3-0.2
	c-0.2,0-0.1-0.1,0-0.1c2.5-0.3,4.9-0.8,7-1.3c0.6-0.2,1.2-0.3,1.8-0.5c2.4-0.6,5.5-1.6,7.2-2.3c-2.1,0.6-3.5,1.2-5.5,1.6
	c-0.1,0-0.1,0.1-0.2,0.1c-1,0.2-1.2,0.5-2.5,0.6c0.1,0,0.2-0.1,0.1-0.1c-0.3,0-0.6,0.1-0.9,0.2c-1.1,0.1-2.1,0.6-3.4,0.5
	c-0.5,0.1-1.3,0.2-1.6,0.2c-1.4,0.2-2.8,0.3-4.3,0.3c1.1-0.2,2-0.2,3.1-0.4c-0.9,0-1.7,0.1-2.7,0c0.3,0,0.6-0.1,0.9-0.1
	c0.9-0.4,2.7-0.4,4.1-0.3c0,0.1-0.6,0.2-0.5,0.3c0.4-0.1,1.3-0.1,1.7-0.2c0.2-0.1,0.2-0.2,0.4-0.2c0.8-0.3,2.1-0.6,3-0.9
	c-0.1-0.1,0-0.2,0.4-0.3c0-0.1,0-0.1,0.1-0.2c2-0.6,3.7-1.2,5.9-1.6c1.1-0.5,3.3-0.8,4.9-1.1c0.3,0-0.1,0.1,0.2,0.1
	c1-0.4,2.2-0.9,2.9-1.2c0.1,0,0,0,0.2,0.1c0.1-0.1,1-0.2,0.7-0.3c-0.2,0-0.4,0.2-0.6,0.2c0-0.1,0.7-0.2,1-0.3c0.1,0,0,0.1,0,0.1
	c0.1,0,0.3-0.1,0.4-0.1c-0.1,0-0.2,0-0.1-0.1c0.4-0.1,0.9-0.2,1.1-0.1c0.5-0.1,1.3-0.3,1.2-0.3c0.3,0,0.6-0.1,0.9-0.2
	c-0.2,0-0.4,0.1-0.5,0c0.3-0.1,0.4-0.2,0.8-0.2c0.2,0.1-0.6,0.1-0.4,0.2c0.8-0.1,1.6-0.4,2.6-0.6c0.7-0.2,1.5-0.3,1.8-0.5
	c-0.3,0-0.6,0.1-0.6,0.1c-0.1,0-0.3,0-0.4,0c-0.2,0.1-0.6,0.2-0.7,0.2c-0.1,0-0.3,0-0.4,0c0.5-0.1,1.3-0.4,2.3-0.5
	c0.3-0.1,1.4-0.2,1.6-0.4c-0.4,0-0.8,0.2-1.5,0.2c1-0.2,2-0.5,2.9-0.6c0.1,0,0.2,0,0.3,0c0.2,0,0.4-0.1,0.6-0.1
	c-0.3,0-0.1,0-0.1-0.1c0.9-0.2,2-0.4,3-0.6c0.3,0,0,0,0.2,0.1c0.5-0.1,1.8-0.2,1.4-0.3c-0.2,0-0.4,0.1-0.6,0.1
	c0.9-0.2,2.7-0.5,3.6-0.6c0.2,0-0.3,0-0.1,0c0.6-0.1,1.3-0.2,1.3-0.3c0.9-0.2,2.6-0.4,2.9-0.5c-0.7,0.1-1.1,0.2-1.7,0.3
	c0.6-0.2,1.8-0.3,1.7-0.4c2-0.3,3.8-0.6,6-0.9c0.2,0-0.2,0,0,0c3.7-0.6,6.3-1.2,9.8-1.5c-0.7,0.1-1.4,0.3-2,0.4
	c0.3,0,0.6-0.1,0.7-0.1c0.1,0,0.2,0,0.3,0c-0.5,0,1-0.1,1-0.2c0.3,0,0.6-0.1,1-0.1c0.5-0.1,1.9-0.2,2.6-0.4c-0.1,0-0.4,0-0.3,0
	c0.1,0,0.3,0,0.4,0c0.2-0.1,2.2-0.3,3-0.4c0.3,0,0.7,0,1,0c-0.5,0-0.8,0.1-1.4,0.2c1.5-0.1,1.9-0.2,2.9-0.3c0.3,0-0.3,0,0,0
	c0.6-0.1,1.3-0.1,2.3-0.2c0.1,0,0.2,0,0.4,0c0.1,0,0.5,0,0.4,0c0,0,2.2-0.2,2.9-0.2c0,0-0.5,0-0.4,0.1c0.5,0,0.7,0,1.2-0.1
	c0.2-0.1,1.7-0.1,3-0.2c0.1,0-0.3,0-0.2,0c1,0,1.1-0.1,1.5-0.1c0.3,0,1.1,0,1.6-0.1c1.7-0.1,3.6-0.1,5.2-0.1c0.3,0,1.3,0,1.5,0
	C322.6,29.5,319.9,29.5,317.3,29.6z M321,29.4c0.2,0-0.4,0-0.5,0C320.5,29.4,321,29.4,321,29.4z M319.4,29.4c-0.4,0-1.6,0-2.3,0
	C317.8,29.4,318.5,29.4,319.4,29.4z M309,29.7c1.3-0.1,2.7-0.1,4.4-0.2c0.6,0,1.3,0,1.9,0c-0.5,0-2.2,0.1-3.5,0.1
	c-1,0-1.9,0.1-2.7,0.1C309.1,29.7,309,29.7,309,29.7z M311.3,29.7c-0.4,0-0.9,0.1-1.4,0.1c-0.6,0-1.1,0.1-1.8,0.1
	C309.4,29.9,309.9,29.8,311.3,29.7z M305.8,30c0.3,0-0.5,0-0.3,0C305.3,30.1,305.6,30,305.8,30z M305.2,30.1
	c-0.2,0.1-0.7,0.1-1.3,0.1c-0.1,0-0.2,0-0.3,0C303.9,30.1,304.7,30.1,305.2,30.1z M301,30.4c0.1,0,0.2-0.1,0.6-0.1
	C301.8,30.4,301.2,30.4,301,30.4z M301.8,30.1c-0.1,0.1-1,0.1-1.5,0.1c-0.5,0-0.9,0.1-1.5,0.1C299.6,30.3,300.8,30.2,301.8,30.1z
	 M298,30.5c0,0-0.5,0.1-0.6,0C297.5,30.5,297.7,30.5,298,30.5z M297.2,30.6c-0.1,0-0.5,0.1-0.8,0.1
	C296.4,30.6,296.9,30.6,297.2,30.6z M295.7,30.8c-0.1,0-0.2,0-0.3,0C295.2,30.8,295.5,30.8,295.7,30.8z M315.7,27.5c0,0-0.4,0-0.5,0
	C315.2,27.5,315.5,27.5,315.7,27.5z M315.6,27.7c0.1,0-0.2,0-0.3,0c-0.1,0,0,0-0.1,0C315.4,27.7,315.4,27.7,315.6,27.7z M315.1,27.6
	c0,0.1-1,0-1.4-0.1C313.8,27.5,314.5,27.6,315.1,27.6z M313.4,27.5c0.1,0-0.3,0-0.4,0C313.3,27.5,313.2,27.5,313.4,27.5z
	 M311.6,27.4c-0.2,0-0.4,0-0.5,0C311.1,27.4,311.6,27.4,311.6,27.4z M312.4,27.1c-0.2,0-0.4,0-0.6,0C311.6,27,312.2,27,312.4,27.1z
	 M308.2,26.2c0,0,0.5,0,0.7,0.1C308.6,26.2,308.4,26.2,308.2,26.2z M309.1,26.3c0.2,0,0.5,0,1,0.1C310,26.4,309.4,26.3,309.1,26.3z
	 M311.6,26.4c0.2,0,0.7,0,1,0.1c0,0,0,0,0,0C312.3,26.5,312.1,26.5,311.6,26.4z M314.6,26.8c-0.2,0-0.4,0-0.5-0.1
	c-0.1,0-0.6,0-0.8-0.1C313.7,26.6,314.1,26.7,314.6,26.8C314.5,26.7,314.6,26.8,314.6,26.8z M315.6,26.9c-0.4-0.1-0.5,0-0.9-0.1
	c0,0-0.1,0-0.1-0.1c0.4,0,0.5,0,0.9,0.1C315.5,26.8,315.6,26.9,315.6,26.9z M318,27.1c0.1,0-0.1,0-0.3,0
	C317.6,27,317.8,27.1,318,27.1z M317.5,27C317.5,27.1,317.5,27.1,317.5,27c-0.6,0-1.2-0.1-1.7-0.1c0,0-0.3-0.1-0.2-0.1
	C316,26.9,317,27,317.5,27z M314.8,26.7c-0.2,0-0.4-0.1-0.6-0.1C314.3,26.5,314.5,26.6,314.8,26.7c0,0,0.1,0,0.1,0
	c0.2,0,0.2,0,0.4,0c-0.3,0-1.1-0.1-1.8-0.2C313.7,26.5,314.6,26.7,314.8,26.7z M313.3,26.5C313.3,26.5,313.3,26.5,313.3,26.5
	c-0.2,0-0.2,0-0.4,0C312.9,26.4,313.1,26.5,313.3,26.5z M312.7,26.5C312.6,26.5,312.8,26.5,312.7,26.5c0.2,0,0.4,0,0.4,0
	C313.2,26.6,313,26.6,312.7,26.5z M312.8,26.5c-0.1,0-0.2,0-0.3,0C312.4,26.4,312.7,26.4,312.8,26.5z M311.8,26.3
	c0.1,0,0.1,0,0.2,0.1C311.9,26.3,311.5,26.3,311.8,26.3c-0.2,0-0.3,0-0.4,0C311.7,26.3,311.8,26.3,311.8,26.3z M311.3,26.3
	c0,0.1-0.5,0-0.6,0C310.6,26.2,311.2,26.3,311.3,26.3z M310.1,26.4c0.2,0,0.5,0.1,0.8,0.1C310.9,26.5,310.4,26.5,310.1,26.4z
	 M309.8,26.1C309.8,26.1,309.7,26.1,309.8,26.1c-0.1,0-0.1,0-0.2,0C309.5,26,309.7,26.1,309.8,26.1z M310,26.3c-0.1,0-0.5-0.1-0.5,0
	c-0.1,0-0.1,0-0.1-0.1C309.6,26.3,309.9,26.3,310,26.3z M308.5,26.2C308.6,26.2,308.4,26.1,308.5,26.2c0.2,0,0.3,0,0.5,0.1
	c0,0,0,0,0.1,0c0.2,0.1-0.5-0.1-0.3,0C308.7,26.2,308.5,26.2,308.5,26.2C308.2,26.1,308.3,26.1,308.5,26.2z M308.3,26.1
	c-0.1,0-0.3,0-0.3-0.1C308.1,26.1,308.2,26.1,308.3,26.1z M299.8,27.1c0.2,0,0.5,0,0.6,0.1C300.3,27.3,299.9,27.2,299.8,27.1z
	 M300.4,27.2c-0.1-0.1,0.2,0,0.3,0C300.8,27.2,300.6,27.2,300.4,27.2z M308,26.9c-0.3,0-0.9,0-1.2-0.1
	C307.2,26.8,307.7,26.9,308,26.9z M306.7,26.8c-0.4,0-1.2,0-1.6-0.1C305.6,26.8,306.2,26.8,306.7,26.8z M306.2,27.3
	c0,0.1-0.8,0-1.2,0c-0.6,0-1.1,0-1.8-0.1c0-0.1-0.3,0-0.4-0.1c0.4,0,0.6,0,1.1,0.1c0.1,0,0-0.1,0.1-0.1
	C304.7,27.2,305.5,27.2,306.2,27.3z M305,26.7c-0.3,0-0.6,0-1.1,0C304,26.6,304.5,26.7,305,26.7z M303.1,25.8c0.3,0-0.4,0-0.3,0
	C302.9,25.8,303.1,25.9,303.1,25.8z M301.1,25.6C301.1,25.7,301.1,25.7,301.1,25.6C301.2,25.7,301.2,25.7,301.1,25.6
	c0.4,0.1,1,0.1,1.4,0.1c-0.2,0.1-1.1-0.1-1.2,0C301.3,25.8,301.1,25.7,301.1,25.6c-0.1,0-0.1,0.1-0.3,0
	C300.7,25.6,301,25.6,301.1,25.6z M302.1,27.2c-0.3,0-0.7,0-1.1,0C301.1,27.1,301.9,27.1,302.1,27.2z M300.1,26c0.1,0.1-0.3,0-0.4,0
	C299.7,25.9,300.1,26,300.1,26z M299.5,25.9c-0.1,0.2-1.4,0-1.9-0.1C297.9,25.7,299.2,25.8,299.5,25.9z M298.9,26.4
	c-0.2,0-0.7,0-1,0C298,26.4,298.6,26.5,298.9,26.4z M297.4,26.5c-0.2,0-0.1,0-0.4,0C297,26.4,297.3,26.4,297.4,26.5
	C297.4,26.4,297.4,26.5,297.4,26.5z M296.6,25.2c0.1,0.1-0.4,0-0.5,0C296.1,25.1,296.4,25.2,296.6,25.2z M297,26.4
	c-0.1,0.1-0.9,0-1,0C296.3,26.4,296.6,26.4,297,26.4z M295.2,25C295.2,25.1,295.2,25.1,295.2,25c-0.1,0.1-0.2,0-0.2,0
	C295,25,295.1,25,295.2,25z M296.6,27c0,0.1-0.5,0-0.7,0C295.9,27,296.5,27,296.6,27z M294.1,24.9c0,0.1-0.5,0-0.5,0
	C293.9,24.9,293.9,24.9,294.1,24.9z M293.4,24.9C293.4,24.9,293.4,24.9,293.4,24.9c-0.1,0.1-0.1,0-0.2,0
	C293.2,24.9,293.3,24.9,293.4,24.9z M295.7,27c0.1,0.1-0.5,0.1-0.7,0c-0.6,0-0.7,0-1.2,0C293.9,26.7,295.2,27,295.7,27z M222.4,44.7
	c-0.1,0-0.1-0.1-0.2-0.1c0.1-0.1,0.2,0,0.3,0C222.6,44.7,222.5,44.6,222.4,44.7z M228.4,45.5c-0.5,0-1,0-1.5-0.1
	c0.5-0.1,0.9-0.2,1.3-0.2C228.6,45.4,227.8,45.4,228.4,45.5z M235.2,24.2c0.5-0.2,0.3-0.1,0.4-0.1C235.3,24.2,235.1,24.3,235.2,24.2
	z M237.9,23.5c0.5-0.2,0.4-0.1,0.9-0.2C237.8,23.6,238.4,23.4,237.9,23.5z M231.2,40.8C230.9,41,230.5,40.8,231.2,40.8L231.2,40.8z
	 M239,23.5c-0.2,0-0.2,0-0.1,0c0.2-0.1,0.4-0.1,0.5-0.1C239.3,23.5,239.2,23.5,239,23.5z M240.2,23.3c0.1,0,0.2,0,0.3,0
	C240.2,23.4,239.8,23.4,240.2,23.3z M235,39.9c0,0.1-0.4,0.3-0.6,0.1C234.6,39.9,234.8,40,235,39.9z M233.1,40.4c-0.1,0-0.2,0-0.3,0
	c-0.1-0.1,0-0.1,0.1-0.2C233.1,40.3,233.1,40.4,233.1,40.4z M240.6,23.3c0.2-0.1,0.7-0.2,0.2,0C240.6,23.3,240.5,23.3,240.6,23.3z
	 M242.6,22.6C242.8,22.6,243.2,22.5,242.6,22.6C242.5,22.7,241.9,22.8,242.6,22.6z M242,23c-0.5,0.2-0.8,0.2-0.8,0.1
	C241.9,22.9,241.6,23.1,242,23z M232.7,29.5C232.7,29.5,232.7,29.6,232.7,29.5c0,0.2,0.4-0.3,0.2,0.1c-0.1,0-0.2,0.1-0.3,0.1
	C232.6,29.7,232.6,29.6,232.7,29.5z M239.1,43.3c0.3,0,0.4-0.1,0.5-0.1C239.7,43.2,239.3,43.4,239.1,43.3z M235.7,41
	c0.1,0,0.2,0,0.3-0.1C236.2,41,235.8,41.2,235.7,41z M239.8,43.2c-0.2,0,0.3-0.1,0.4-0.2C240.4,43.1,240,43,239.8,43.2z M235.8,39.8
	C235.8,39.8,235.8,39.8,235.8,39.8c0-0.1-0.1-0.1-0.1-0.2c0.2,0,0.2,0,0.4-0.1C236.4,39.8,235.9,39.7,235.8,39.8z M237,28.1
	c-0.1,0-0.5,0.2-0.4,0C236.9,27.9,237.1,27.9,237,28.1z M238,39.3c0.1-0.2,0.5-0.2,0.7-0.2C238.6,39.2,238.1,39.3,238,39.3z M239,39
	c0-0.1,0.4-0.3,0.5-0.1C239.2,39,239.2,39,239,39z M236.9,28.9c0.1-0.1,0.1-0.1,0-0.1c0.5-0.4,0.4,0,0.8-0.3
	C237.5,28.8,237.3,28.7,236.9,28.9z M239.4,28.1c0.2,0,0.6-0.2,0.5,0C239.8,28.1,239.4,28.3,239.4,28.1z M243.1,27.5
	c-0.2,0-0.1-0.1-0.3,0c0.2-0.1,0.4-0.3,0.5-0.2C243.2,27.4,243.1,27.4,243.1,27.5z M244.1,27.2c0.4-0.1,0.8-0.1,1.2-0.2
	C245,27.1,244,27.5,244.1,27.2z M245.4,27c0.1-0.1,0.2-0.1,0.4-0.2C245.7,27.1,245.4,27.1,245.4,27z M246.6,26.8
	c-0.1,0,0.4-0.2,0.5-0.1C246.9,26.9,246.8,26.8,246.6,26.8z M249.1,26.4c0.1-0.2,0.3-0.1,0.4-0.1C249.4,26.4,249.3,26.4,249.1,26.4z
	 M250.8,26.3c0,0,0-0.1,0.1-0.2c0.3-0.1,0.5-0.1,0.8-0.1C251.3,26.2,251,26.1,250.8,26.3z M259.3,38.7c-0.1,0-0.2,0-0.3,0
	c0.1,0,0.3-0.1,0.4,0C259.4,38.7,259.5,38.7,259.3,38.7z M252,25.7c-0.1,0,0.5-0.2,0.3,0C252.1,25.7,252.2,25.6,252,25.7z
	 M252.9,25.4c0.1,0,0.3-0.1,0.2,0C253.1,25.6,252.7,25.6,252.9,25.4z M253.2,25.5c0.2-0.2,0.3,0,0.6-0.1
	C253.6,25.6,253.3,25.5,253.2,25.5z M262.3,37.9c-0.2,0-0.4,0.1-0.6,0.1c0.3-0.1,0.4-0.1,0.7-0.2c0.1,0,0.3,0,0.4,0
	C262.7,37.8,262.1,37.9,262.3,37.9z M259.5,22.8c0.2,0,0.3,0,0.1,0C259.6,22.9,259.3,22.9,259.5,22.8z M257.4,25.7
	c0,0.2-0.6,0.2-0.6,0.1C257,25.6,257,25.7,257.4,25.7z M258.5,34.1c0.1-0.1,0.5-0.1,0.8-0.2C259.1,34,258.7,34.1,258.5,34.1z
	 M259.8,22.7c0.5-0.1,0.7,0,1.3-0.1c-0.5-0.2-3.8,0.2-3.3-0.2c0.4,0,0.2,0,0.3,0.1c1.6-0.1,3.1,0,4.5,0c-0.4,0.1-0.8,0-1.2,0.1
	c0,0.1,0.8,0,1.1,0C261.6,22.7,260.5,22.7,259.8,22.7z M261.3,34.7c-0.2,0,0,0-0.2-0.1C261.3,34.5,261.5,34.7,261.3,34.7z
	 M259.2,25.6c0,0,0.1-0.1,0.1-0.1c0.1,0,0.2,0,0.2,0C259.5,25.6,259.3,25.6,259.2,25.6z M260,25.4c0.1,0,0.1,0,0.2,0.1
	C260.1,25.6,259.8,25.6,260,25.4z M260.1,25.2c0.2-0.1,0.4-0.1,0.6-0.1C260.6,25.2,260.3,25.2,260.1,25.2z M260.9,25.1
	c0.1,0,0.7-0.1,0.5,0C261.3,25,261.1,25.2,260.9,25.1z M268.1,36.1c0,0-0.1,0-0.2,0c0,0,0.3-0.1,0.5,0
	C268.3,36.1,268.3,36.1,268.1,36.1z M263.1,25.3c0-0.1,0.2-0.2,0.3-0.1C263.3,25.3,263.2,25.3,263.1,25.3z M293.7,31
	c-0.1,0.1-0.7,0.1-1,0.2C292.8,31.1,293.3,31.1,293.7,31z M292.6,31.2c0.4,0-0.1,0-0.2,0.1c-0.2,0-0.6,0.2-1.2,0.3
	c-0.7,0.1-2.5,0.3-2.5,0.3C288.6,31.9,291.5,31.4,292.6,31.2z M285,31c-0.2,0-0.4-0.1-0.7-0.1c-0.5,0.2-1,0.2-1.3,0.3
	c-0.6-0.2,0-0.3,0.8-0.4c0,0,0.1,0,0.1,0.1c0.1-0.2,0.8-0.2,1.6-0.3c0,0.1-0.2,0.1,0,0.2c-0.3,0-0.4,0-0.7,0.1
	C284.9,30.9,285.1,30.9,285,31z M281.2,29.6c0-0.1,0.4,0,0.7-0.1C282,29.7,281.4,29.6,281.2,29.6z M282,29.5c0,0,0.4-0.1,0.4,0
	C282.4,29.6,282.1,29.6,282,29.5z M287.3,30.7c-0.4,0-0.9,0.1-1.3,0.2c-0.2,0-0.7,0.1-0.9,0c0.3,0,0.4-0.1,0.6,0
	c0.1-0.1,0.3-0.1,0.5-0.1c-0.3-0.1-0.3-0.1-0.3-0.3c0.2,0,0.3,0,0.4,0.1c0.2,0.1-0.1,0.1,0,0.2c0.3,0,0.2-0.2,0.6,0
	c0.3-0.1-0.3-0.1-0.5-0.1c0,0,0.1-0.1,0.3-0.1c-0.1-0.1-0.3,0-0.3,0c0.2-0.1,0.5,0.1,0.9,0C287,30.5,287.3,30.6,287.3,30.7z
	 M290.6,30.1c0.1,0,0.3,0,0.4,0C291.1,30.2,290.6,30.3,290.6,30.1z M292.1,30c0,0-0.1,0-0.1-0.1c-0.1,0,0.1,0.1,0,0.1
	c-0.1,0-0.3,0-0.3-0.1c-0.1,0,0,0,0,0.1c-0.1,0-0.3,0-0.3-0.1c-0.3,0.1-0.6,0-0.8,0.1c-0.7-0.2-1.5,0.1-2.1-0.1
	c1.3-0.1,1.7,0,2.8-0.1c0.2,0-0.2-0.1,0.1-0.1C291.5,29.9,291.9,29.7,292.1,30c0.4-0.1,0.6-0.1,0.8-0.1c0.1,0,0.1,0,0-0.1
	c0.7,0,1.6-0.1,2.4-0.1c0.4,0,0.8-0.2,1.3-0.1C295.1,29.7,293.5,29.9,292.1,30z M291.5,29.8c0.3-0.1,1.1-0.2,1.9-0.2
	C292.9,29.7,292.3,29.7,291.5,29.8z M293.9,29.6c0.1,0,0.4-0.1,0.5,0C294.4,29.6,294,29.7,293.9,29.6z M296.5,29.5
	c0.3-0.1,1.4-0.2,1.7-0.1C298,29.5,297.1,29.5,296.5,29.5z M298.5,29.4c-0.1,0-0.3-0.1-0.2-0.1c0.2,0,0.4,0.1,0.7,0
	C299.1,29.4,298.6,29.3,298.5,29.4z M302.6,29.1c0.2,0,0.3,0,0.4,0C303.2,29.1,302.7,29.1,302.6,29.1z M307.6,28.9c0,0,0.5,0,0.7,0
	C308.2,28.9,307.9,29,307.6,28.9z M308.8,28.9c0.1,0,0.3,0,0.4,0C309.2,28.9,308.8,28.9,308.8,28.9z M309.4,28.9
	C309.1,28.9,309.7,28.9,309.4,28.9c0.6,0,0.9-0.1,1.2,0C310,28.9,309.8,28.9,309.4,28.9z M312.7,29.1c0.2,0,0.3,0,0.5,0
	C313,29.2,312.8,29.2,312.7,29.1z M310.7,28.9c0.1,0,1.1-0.1,1.6,0C311.8,28.9,311.1,28.9,310.7,28.9z M313.6,28.6c-0.3,0-0.7,0-1,0
	C312.9,28.5,313.3,28.5,313.6,28.6z M312.5,28.5c0.1,0-0.3,0-0.4,0C312.1,28.5,312.5,28.5,312.5,28.5z M314.1,28.8
	c-0.2,0-0.8,0-1.2,0c-0.1,0-0.1,0-0.2,0C313.1,28.7,313.8,28.7,314.1,28.8z M312.7,28.9c0.3,0,0.3,0,0.6,0
	C313.1,28.9,312.9,28.9,312.7,28.9z M308.3,28.7c0.3,0,0.5,0,0.7,0c1-0.1,2.5,0,3.5,0c0.1,0-0.4,0-0.8,0c-0.8-0.1-2.2,0-3.1-0.1
	c0,0,0,0-0.2,0C308.6,28.7,308.2,28.7,308.3,28.7z M308.2,28.7C308.2,28.7,308.1,28.7,308.2,28.7c-0.4,0-0.8,0.1-1.4,0.1
	C307.1,28.7,307.7,28.7,308.2,28.7z M306.5,28.8c-0.2,0-0.4,0-0.7,0C305.8,28.7,306.3,28.7,306.5,28.8z M305.2,28.7
	c0.1,0,0.3,0,0.4,0C305.7,28.8,305.4,28.8,305.2,28.7C305.2,28.8,305.2,28.7,305.2,28.7z M296.4,28.3c-0.2,0-0.4,0-0.6,0
	C295.9,28.2,296.1,28.2,296.4,28.3z M295.6,28.3c-0.3,0-0.6,0.1-1,0C294.8,28.3,295.3,28.2,295.6,28.3z M294.6,28.4
	c-0.1,0.1-0.5,0-0.8,0C293.8,28.3,294.5,28.3,294.6,28.4z M293.3,28.2c0.2,0,0.2,0.1,0.3,0.1c-0.1,0-0.4,0-0.6,0
	C293,28.3,293.5,28.3,293.3,28.2z M292.8,28.4c-0.5,0-1,0-1.4,0C291.8,28.3,292.4,28.2,292.8,28.4z M291,28.3c0,0.1-0.3,0-0.4,0
	C290.6,28.3,290.9,28.3,291,28.3z M284.5,24.7c0,0.1-0.2,0-0.3,0.1c-0.1,0-0.1,0-0.1-0.1C284.2,24.7,284.4,24.7,284.5,24.7z
	 M288.9,28.9c-0.7-0.1-1.8,0.1-2.5,0c1.7-0.2,4.3-0.2,6.3-0.2c0.4,0,0.7,0,1.1,0c0.8,0,1.5,0.2,2.4,0.1c-0.3,0.1-1.2,0.1-1.5,0.2
	c2.8,0,5.1-0.2,7.5-0.3c0.1,0,0.1,0,0,0c0.9,0,1.9,0,2.8,0c0.2,0-0.1,0,0.1,0.1c-0.6,0-1,0-1.5,0c0,0,0,0,0.1,0
	c-0.5-0.1-1.3,0.1-1.7,0c0.1,0.1-0.5,0.1-0.5,0.2c0.5,0.1,1.2,0,1.6,0c-0.3,0.1-1.1,0-1.6,0.1c-0.2,0,0,0,0-0.1c-0.2,0-0.1,0-0.3,0
	c0.1,0,0.3,0.1,0.4,0.1c-0.2,0.1-1,0-1.3,0.1c0.1,0,0.5,0,0.2,0.1c0.2,0,0.7-0.1,0.9,0c-0.3,0.1-1.3,0.1-2,0.1
	c-0.3-0.1,0.5-0.1,0.8-0.1c-0.1-0.1-0.3,0-0.4-0.1c-0.9,0.1-2.1,0-2.7,0.1c0.2,0,0.5,0,0.8,0c0,0-0.6,0-0.6,0.1
	c-1.1-0.1-1.9,0.1-3.1,0.1c0.6-0.2,2-0.2,2.4-0.3c-0.6,0-2,0-3,0.1c-0.2-0.1-0.1-0.1-0.1-0.1c-0.4,0.1-1.6,0.2-2.3,0.2
	c0.6-0.2,2-0.3,2.9-0.5c-0.9,0-1.6-0.1-2.4-0.1c-0.1,0-0.2,0-0.2,0.1c-1.8,0-3.6,0.3-5.1,0.3C287,29.1,287.7,28.9,288.9,28.9z
	 M288.1,30.2c0.1,0.1-0.4,0-0.4,0.1C287.4,30.3,287.9,30.2,288.1,30.2z M288.1,30.5c-0.1-0.1-0.2,0-0.3-0.1
	c-0.1-0.1,0.4-0.1,0.5-0.1c0.1,0.1,0.2,0.1,0,0.2c0.5-0.1,1.4-0.2,2-0.2c-0.6,0.2-2.1,0.3-3,0.4c-0.1-0.1-0.1-0.1,0.1-0.2
	c0.1,0,0.1,0.1,0.2,0.1c0.2,0-0.4-0.1-0.1-0.2c0.2,0,0.3,0.1,0.3,0.1C287.9,30.5,288,30.5,288.1,30.5z M283.5,24.7
	c0.1,0,0,0.2-0.1,0.1C283.5,24.8,283.5,24.8,283.5,24.7z M279.5,24.8c0,0.1-0.3,0-0.4,0C279.1,24.7,279.4,24.8,279.5,24.8z
	 M278.9,24.7c0.1,0,0.1,0,0.2,0c0,0.1-0.1,0.1-0.3,0.1C278.8,24.8,278.8,24.8,278.9,24.7z M282.4,29.1c0.9-0.1,2.2-0.1,3.4-0.1
	c0,0.1,0.2,0.1,0.3,0.2c-2,0.1-3.8,0.2-5.9,0.2C280.6,29.2,281.8,29.2,282.4,29.1z M280.4,29.7c-0.2,0-0.4,0.1-0.4-0.1
	C280.2,29.6,280.4,29.5,280.4,29.7z M282.4,31c-0.3,0.1,0.2,0,0.3,0.1c-0.8,0-1.1,0.1-1.6,0C281.5,31.1,282,31,282.4,31z
	 M277.8,24.7c-0.1,0.1-0.4,0.1-0.5,0C277.3,24.7,277.6,24.7,277.8,24.7z M276.5,29.5c0.2-0.3-0.8-0.3-0.8-0.3s1.4-0.2,2.3-0.1
	C277.8,29.4,276.9,29.3,276.5,29.5z M279.7,31.7c0,0-0.3,0.1-0.5,0.1C279.1,31.7,279.5,31.7,279.7,31.7z M276,24.8
	c0.1-0.1,0.3,0,0.5-0.1C276.4,24.9,276.2,24.8,276,24.8z M276.6,24.7c0.1,0,0.1,0,0.2,0c0,0-0.1,0.1-0.1,0.1
	C276.7,24.8,276.6,24.8,276.6,24.7z M277.6,23.4c0.2,0,0.6,0,0.7,0C278,23.4,277.8,23.4,277.6,23.4z M264.1,25.2c0.1,0,0.1,0,0.1,0
	c0,0,0,0,0-0.1c0.2,0,0,0.2,0.2,0.1C264.4,25.4,264,25.4,264.1,25.2z M272.5,35.7c-0.1,0-0.2,0-0.3,0c0.4,0,0.4-0.1,0.7-0.1
	C273,35.5,272.4,35.7,272.5,35.7z M265,24.9c0.1,0.1,0.2,0,0.4,0C265.4,25,265,25,265,24.9z M265.5,25c0.1-0.1,0.3,0,0.6-0.1
	C266,25,265.5,25,265.5,25z M266.8,24.3c-0.2-0.2-1.3,0.1-1.5-0.1c0.2-0.2,0.8,0.1,0.9-0.2c0.9,0,1.7-0.1,1.8,0.3
	C267.6,24.4,267.2,24.2,266.8,24.3z M267.5,22.7c0,0,0.1,0,0.1,0c0.6,0,0.3,0.1,0,0C267.5,22.7,267.5,22.7,267.5,22.7
	C267.5,22.7,267.5,22.7,267.5,22.7z M266.5,23.9c0.3-0.2,0.5,0,0.7,0C267.1,23.9,266.8,23.9,266.5,23.9z M267.3,23.9
	c0.1-0.1,0.3-0.1,0.3,0C267.5,23.9,267.4,23.9,267.3,23.9z M267.9,23.8c0.2-0.1,0.5,0,0.6,0C268.4,23.9,268,23.9,267.9,23.8z
	 M268.2,24.1c0.5-0.1,1.3-0.1,1.5,0C269.1,24.1,268.8,24.1,268.2,24.1z M267.1,22.6c0.7-0.3,1.4-0.1,2.1-0.2c0.1,0,0.2-0.1,0.4-0.1
	c0.5,0,1.8,0.1,2.4,0.1c0.6,0.1,1.7,0.1,2.5,0.2c1,0.1,2.6,0.3,3.9,0.4c0,0.1-0.2,0.1,0.1,0.2c-1.4,0.1-2.9-0.3-4.3-0.1
	c0.1-0.1,0.1-0.1,0.1-0.1C271.8,22.9,269.4,22.7,267.1,22.6z M272.7,25c-0.3-0.1-0.5,0-0.7-0.1c0.1-0.1,0.5,0,0.7-0.1
	C272.8,24.9,272.8,25,272.7,25z M271.9,24.9c-0.2,0.1-0.5,0-0.8,0.1C271.3,24.9,271.7,24.9,271.9,24.9z M270.9,25
	c-0.1,0.1-0.5,0.1-0.6,0c0.1-0.2,0.4,0.1,0.4-0.1C270.8,24.9,270.8,25,270.9,25z M270.1,25.1c-0.2,0-0.4,0-0.4-0.1
	C269.9,25,270.1,24.9,270.1,25.1z M273.9,33.6c0-0.1,0.1-0.1-0.1-0.2c1.4-0.1,2.7-0.5,4.2-0.6c0.3,0,0,0.1,0.1,0.1
	c0.3,0,0.7-0.2,1,0C277.6,33.2,275.7,33.5,273.9,33.6z M275.2,23.2c0.3-0.1,0.5,0,0.7,0C275.6,23.3,275.5,23.2,275.2,23.2z
	 M281.4,33.5c2-0.5,4.5-0.8,6.9-1.1C286,32.8,283.7,33.2,281.4,33.5z M286.5,31.9C286.3,31.9,286.5,31.9,286.5,31.9
	c-0.3-0.1-0.5,0-0.8,0c-0.3-0.1,0.3-0.1,0.5-0.1c-0.7-0.1-1.8,0.3-2.3,0.2c2.2-0.4,4.4-0.5,6.7-0.8c-0.1,0.1-1.1,0.2-0.9,0.3
	C288.8,31.6,287.7,31.9,286.5,31.9z M298.2,31.3c0.3,0,0.9-0.1,1.3-0.2C299.6,31.1,298.7,31.2,298.2,31.3z M303.8,30.6
	c-0.1,0-0.1,0-0.2,0c0,0,0.2,0,0.3,0C304.2,30.5,304,30.5,303.8,30.6z M305,30.4c-0.1,0-0.4,0.1-0.9,0.1c-0.3,0,0.4,0,0.3,0
	c-2.7,0.2-5,0.5-7.5,0.8c-1.7,0.2-3.9,0.5-5.8,0.8c-0.6,0.1-1.3,0.2-1.8,0.2c0.5-0.1,1.1-0.2,1.6-0.2c0,0,0,0,0,0c0.2,0,0.4,0,0.6,0
	c4.6-0.7,9.2-1.2,14.1-1.6c0.5,0,1.1-0.1,1.4-0.1C306.9,30.3,305.8,30.4,305,30.4z"/>
<path class="st2" d="M247,44.1c1.8-0.4,4.2-1,5.4-1.3c0.4-0.1,0.5-0.2,1.3-0.4c0.8-0.1,1.3-0.3,2.2-0.5c-0.1,0-0.4,0.1-0.4,0.1
	c0.3,0,0.2-0.1,0.5-0.1c2-0.4,4.8-1.2,7.1-1.5c0.5-0.1,0.9-0.3,1.3-0.3c0,0.1-0.9,0.2-1.2,0.3c1.8-0.4,3.3-0.8,5-1.3
	c0.2,0,0.5,0,0.6,0c-2,0.7-5.2,1.2-8,1.8c-0.8,0.2-1.5,0.4-2.1,0.5c-0.2,0-0.6,0.1-0.8,0.1c-0.6,0.1-0.6,0.3-1.2,0.4
	c-1.1,0.1-2.9,0.6-3.9,0.9c-0.2,0,0,0-0.2,0c-0.3,0.1-0.4,0.1-0.6,0.2c-0.7,0.1-1.6,0.3-2.4,0.4c-1.7,0.4-2.3,0.6-4.1,1
	c0.1,0-1,0.3-1.4,0.3c0.1,0.1-0.9,0.3-1.5,0.3c0.7,0-2.1,0.5-2.4,0.7c0.8-0.1,1.7-0.4,2.3-0.4c-0.1,0-0.8,0.2-0.9,0.2
	c0.3-0.1,0.6-0.1,0.9-0.1c1.2-0.2,2.3-0.5,3.4-0.8c0.3-0.1,0.9-0.2,1.3-0.2c-0.5,0.1-1,0.2-1.5,0.3c-1.8,0.4-4.1,0.9-5.3,1.2
	c2.2-0.4,3.8-0.8,5.9-1.3c1.1-0.3,3.7-0.8,5.8-1.3c0.7-0.2,1.7-0.4,2.2-0.5c1.1-0.3,2.5-0.5,3.4-0.8c0.5-0.1,1-0.3,1.6-0.4
	c0.4-0.1,0.9-0.3,1.3-0.2c-0.4,0.1-1,0.2-0.9,0.3c0.3,0,1-0.3,1.5-0.3c0.2,0-0.5,0.1-0.2,0.2c0.6-0.2,1.7-0.3,2.4-0.5
	c-0.8,0.1-1.3,0.4-2,0.4c1.9-0.5,4.4-1.1,6.5-1.6c1-0.2,2-0.5,2.8-0.6c0.1,0-0.2,0.1-0.1,0.1c0.5,0,1.4-0.3,0.9-0.3
	c0.5-0.1,0.9-0.2,1-0.2c-0.2,0.1-0.8,0.2-0.6,0.3c-0.5,0.2-1.3,0.3-1.5,0.5c1-0.1,1.2-0.4,1.9-0.5c0.1,0.1-0.1,0.1,0.2,0.1
	c0.3,0-0.2-0.1,0-0.2c0.9-0.2,1.6-0.5,2.4-0.5c0.2,0-0.1,0.1,0.1,0.1c-0.4,0-1,0.2-1,0.3c1.4-0.3,3.2-0.5,4.8-0.7
	c-2.5,0.8-6.5,1.2-9.2,2c0.9-0.2,1.8-0.4,2.4-0.4c-0.2,0.2-0.9,0.4-1.5,0.5c-1.4,0.3-3.1,0.7-4.4,0.9c-0.1,0.1,0,0.1-0.2,0.1
	c-2.6,0.6-5.6,1.3-7.6,1.7c-2,0.3-4.1,0.6-6.1,1c-0.7,0.1-1.5,0.2-2.3,0.3c-2.5,0.4-4.7,0.9-6.7,1.3c1.8-0.2,3.6-0.6,5.3-1
	c0.5-0.1,1.3-0.3,1.9-0.3c-3,0.6-5.4,1-7.7,1.6c0.4,0,0.8-0.1,1.2-0.1c0.3,0-0.2,0,0.1-0.1c0.8-0.1,1.6-0.3,2.3-0.4
	c0.4-0.1,0.8-0.2,1.4-0.2c-1.3,0.3-2.1,0.4-3.3,0.6c-0.8,0.3-2.4,0.5-3.7,0.8c-1,0.2-1.8,0.4-2.9,0.5c-0.1,0.1-1.5,0.2-1.6,0.3
	c0.5,0,1.2-0.2,1.7-0.2c0.2,0,0,0,0.1,0.1c1.6-0.3,4-0.8,6.1-1c-0.1,0-0.3,0-0.1-0.1c0.2,0,0.2-0.1,0.4,0c0,0-0.4,0-0.2,0.1
	c0.4-0.1,0.9-0.1,1.3-0.2c0.2,0-0.1,0.1,0.2,0c0.3,0,0.5-0.1,0.8-0.2c0.8-0.1,1.7-0.3,2.4-0.3c-1.3,0.3-2.4,0.5-3.8,0.8
	c0.6-0.1,1.4-0.2,1.9-0.2c0.9-0.1,1.9-0.3,2.7-0.4c-0.7,0.2-1.9,0.3-2.2,0.5c0.3,0,0.9-0.2,0.6,0c2.2-0.2,4.6-0.9,6.5-0.9
	c1.2-0.3,2.9-0.5,4.1-0.8c0.2,0,0.3,0.1,0.5,0c3.8-0.7,8-1.3,11.3-1.5c0,0-0.1-0.1,0.1-0.1c0.1,0.1,0.5,0,0.6,0.1
	c1.6-0.3,2.9-0.2,4.5-0.6c0.1,0,0.2,0,0.3,0.1c0.5-0.2,1.1-0.1,1.8-0.3c0.3,0.1,0.8-0.1,0.9,0.2c-0.3,0.2-1,0.2-1.2,0.4
	c0,0.1,0.3,0.3,0,0.3c-0.7,0-1.3,0.2-1.9,0.3c-0.2,0,0-0.1-0.1-0.2c-2.8,0.2-5.6,1.3-8,1.1c-0.2,0.1,0.1,0.2-0.1,0.3
	c-1.2,0.2-2.8,0.3-3.6,0.6c0.2,0,0.3,0,0.4,0c-0.1,0.2-0.6,0.1-1,0.3c-0.1,0,0.2,0,0.2,0.1c-0.2,0.1-0.4,0.2-0.3,0.2
	c-2.4,0.2-5.6,0.4-7.5,0.8c-0.2-0.1-0.4,0-0.7,0c0.1,0.1,0.3,0,0.4,0c-0.5,0.1-1.1,0.2-1.4,0.1c-0.6,0.2-2.1,0.3-2.9,0.5
	c0.3,0.2-0.4,0.2-0.6,0.3c0.1,0.2,0.5,0,0.6,0.1c-0.2,0.1-0.5,0-0.7,0c-1,0.3-2.4,0.2-3.6,0.3c-0.2,0-0.3,0.1-0.6,0.1
	c-0.4,0-0.9,0-1.3,0.1c-1.7,0.2-3.5,0.3-4.6,0.5c1.5-0.1,3.2-0.3,4.9-0.4c0.6,0.2,1.8-0.2,2.3-0.1c0.1,0.2-0.7,0.2-0.9,0.2
	c0.4,0.1,0.9-0.2,1.4-0.1c-2.4,0.4-4.8,0.4-7.3,0.7c-1.3,0.1-2.8,0.2-3.7,0.3c-0.1,0-0.1,0-0.2,0c-1.6,0.2-3.7,0.2-4.5,0.4
	c0.7,0,1.4-0.1,2.1,0c0.5-0.1,1.2-0.1,1.9-0.1c0.1,0.1-0.3,0-0.1,0.1c0.3,0,0.2-0.1,0.4-0.1c0.1,0,0.3,0,0.4,0c0,0,0.2,0,0.2-0.1
	c0.7,0,1-0.1,1.8-0.1c0.6,0,1.3,0,1.8,0c0.7,0,1.3-0.2,2.1-0.2c0,0,0.1,0,0.1,0c0,0,0,0,0,0c0.1,0,0.2,0,0.3,0
	c0.9-0.2,2.6-0.4,3.8-0.5c-0.4,0.2-1.8,0.2-2,0.4c2.9-0.2,6.2-0.7,8.7-0.8c-1.1,0.2-2.8,0.3-4.1,0.6c0.6,0,0.9,0,1.5-0.1
	c-0.1,0.1,0,0.2-0.1,0.3c-0.5,0-1,0.1-1.3,0c0.2,0,0.4-0.1,0.4-0.1c-0.8,0.1-2,0.1-2.7,0.3c0.1,0.1,0.2,0.1,0.2,0.1
	c-0.3,0.1-0.9,0.1-1,0.2c1.9-0.1,3.8-0.2,5.6-0.4c1.1-0.1,1.9-0.1,2.6-0.3c0.4,0.1,1.1,0,1.6,0c-0.1,0.2-1,0.1-1.1,0.2
	c1.4,0.2,3-0.3,4.4,0c-0.4,0-0.9,0.1-1.3,0.1c0,0.1,0.3,0,0.5,0c-0.1,0.1,0.2,0.1,0.4,0.1c0.2,0-0.2-0.1,0.1-0.1
	c0.2,0,0.3,0,0.6-0.1c0.1,0,0,0.1,0.2,0.1c1.5-0.1,4.3-0.4,6.4-0.5c-1.6,0.3-3.5,0.4-5,0.6c-0.1,0-0.1-0.1-0.2-0.1
	c0,0-0.1,0.1-0.1,0.1c-1.1,0-2.1,0.2-3,0.2c0-0.1,0.2,0,0.2-0.1c-0.4,0.1-0.7-0.1-1,0c0.3,0,0.5,0.1,0.6,0c0,0.2-0.5,0.1-0.6,0.1
	c-0.4,0-0.8,0-1.2,0.1c-0.1-0.1,0-0.2-0.2-0.2c0,0,0.1,0.1,0,0.2c-0.2,0-0.3-0.1-0.4-0.2c0.3,0,0.3,0,0.6-0.1
	c-1.4,0-2.9,0.2-4.3,0.2c-2.1,0.1-4.4,0.2-6.3,0.4c-0.9,0.1-2.1,0.2-3.1,0.2c-0.3,0-0.6,0-0.8,0c-0.8,0-1.3,0.1-2,0.1
	c-1.3,0-2.9,0-3.8,0.1c0.6,0.1,1.4-0.1,1.8,0c-0.4,0.1-0.8,0-1.3,0c0.3,0,0.4,0.1,0.6,0.1c0.3,0.1-0.3,0.1,0.1,0.1
	c0.4,0,1.2-0.1,1.6-0.1c0.1-0.1,1-0.2,1.7-0.1c-0.1,0.1-1.1,0-0.8,0.1c0,0,0.3,0,0.4,0c-0.1,0.1-0.7,0.1-0.6,0.2
	c0.5-0.1,1.2-0.1,1.5-0.2c0.1,0,0,0,0.1,0.1c0.5-0.1,1.6-0.1,2.2-0.1c0.1,0-0.3-0.1-0.1-0.1c0.5,0,1.2-0.1,1.7,0
	c-0.1,0.2-1.2,0-1.2,0.2c-0.8,0.1-1.6,0.1-1.7,0.2c2.1-0.1,3.6-0.3,5.9-0.3c-0.1,0-0.2,0-0.2,0.1c-0.2-0.1-0.6,0-0.6,0
	c-0.4-0.1-0.3,0-0.7,0c0.1,0,0.2,0.1,0.1,0.1c-0.2,0-0.1-0.1-0.3-0.1c-0.1,0-0.2,0-0.3,0c0,0,0.2,0.1,0,0.1c-0.1,0,0-0.1-0.1-0.1
	c-0.3,0-1.1,0-1.1,0.1c0.3,0,0.9,0,1,0c0.2,0.1,0.3,0.1,0.6,0.1c0.1,0-0.1,0,0.1-0.1c0.1,0,0.1,0.1,0.2,0.1c0.4,0,0.9,0,1.3-0.1
	c3.6-0.1,7.7-0.4,11.7-0.6c0.4-0.2,1.1-0.1,1.6-0.2c1.1-0.1,2.5-0.4,3.8-0.3c-0.3,0.2-1.2,0.2-1.8,0.3c1,0,2.5-0.1,3.7-0.2
	c-0.2-0.1-0.6-0.1-1-0.1c0.2-0.2,1.1-0.2,1.3-0.1c1.2-0.1,2.7-0.3,3.5-0.2c1-0.1,2.2-0.4,2.9-0.3c-0.7,0.2-1.5,0.2-2,0.4
	c2-0.1,4.6-0.4,6.7-0.6c0.3,0,0.6,0,0.9-0.2c-0.3,0-1.4,0.2-1.8,0.1c0.7-0.2,1.2-0.2,1.8-0.3c0.5-0.1,1.2-0.2,1.6-0.3
	c0.5,0,0.8,0,1.3,0c0.7,0,1.8-0.3,2.7-0.4c0.6-0.1,0.8,0,1.1,0c0.2,0,0.7-0.2,0.9-0.2c0.5-0.1,0.9-0.1,1.6-0.2c0,0,0,0.1,0,0.1
	c1.4-0.3,1.2,0,2.2-0.1c0,0.2,0.8,0,1.4-0.1c0.6-0.1,1.1,0,2-0.3c-0.1,0-0.7,0.1-0.6,0c0.7-0.3,0.9-0.2,1.3-0.2c0.2,0,0.7-0.2,1-0.3
	c0.5-0.1,0.7-0.1,0.8,0c-0.1,0-0.2,0-0.3,0.1c0.7-0.2,0.9-0.1,1.3-0.2c0.9-0.1,2.3-0.4,3.4-0.5c0.3,0,0.6,0,1.3-0.3
	c-0.5,0.1-1.7,0.3-1.1,0c0.8-0.1,1.4-0.2,2.4-0.4c0,0,0.1,0-0.1,0.2c0.2,0,0.5-0.1,0.7-0.1c0,0.1,0,0.1-0.1,0.2
	c0.7,0,1.7-0.3,2.6-0.4c0.7-0.1,0.7,0,1.7-0.2c-0.3,0.2,0.2,0.1,0.5,0c1.5-0.2,3.4-0.5,5.4-1c1.2-0.2,2.1-0.4,3.2-0.6
	c1-0.2,1.8-0.3,2.9-0.5c-0.2,0.1-0.4,0.1-0.6,0.2c0.3-0.1,0.8-0.2,1.1-0.3c0.3,0-0.3,0.1,0,0c1.4-0.3,2.1-0.5,1.5-0.3
	c-0.4,0.1-0.1,0-0.9,0.2c0.2,0,0.4-0.1,0,0c-0.5,0.1-1.8,0.3-2.2,0.4c0.9-0.2,0.4,0,1.3-0.3c-0.1,0-0.3,0-1.5,0.3
	c0.3-0.1,0.8-0.2,0.6-0.2c-0.5,0.1-0.5,0.1-0.6,0.2c-0.4,0.1-1.1,0.2-0.7,0.1c0.1,0,0.2,0,0.6-0.1c0,0-0.3,0-0.8,0.2
	c-0.2,0.1,0.5-0.1-0.1,0.1c-2.4,0.4-5.6,1-7.6,1.3c0.9-0.2,1.7-0.3,2-0.4c1.5-0.3,2.1-0.4,3.8-0.8c-2.3,0.4-5.1,0.9-7.9,1.5
	c0.1,0,1.7-0.3,1.9-0.3c-1.6,0.4-2.4,0.5-3.4,0.7c-0.3,0.2,0.7-0.1,0.9-0.1c0.6-0.1,2.3-0.4,3.6-0.6c3.1-0.6,5.6-0.9,9-1.6
	c1.1-0.2,3.6-0.7,5.6-1c1.7-0.3,3-0.5,4.7-0.9c1.6-0.3-0.3,0.2,4.3-0.8c0.6-0.2,0.3-0.1,1-0.2c0.1,0,0.2,0,0.5-0.1
	c-0.1,0-0.5,0.1-0.3,0c1.1-0.3,1.6-0.4,2.2-0.5c6-1.5,12.5-3.3,10.6-4.1c0.2,0,0.2-0.1,0.2-0.2c0-0.2-0.3-0.3-0.8-0.3
	c-0.2-0.2-0.5-0.5-1.2-0.6c0.4,0,0.8,0,1.3,0c-0.5,0-1.2,0-1.7-0.1c-0.1-0.1-0.3-0.1-0.5-0.2c0.1-0.1,1.1-0.1,0.3-0.4
	c0.2,0-0.1-0.1,0.2-0.1c-0.2,0-0.3-0.1-0.5-0.1c-0.3,0-0.5-0.1-0.8-0.1c-0.3-0.1-0.7-0.1-1.1-0.2c-0.1,0,0.5,0.1,0.2,0
	c-1.1,0-1.9-0.2-3.1-0.2c-1.5-0.3-3.1-0.5-4.5-0.6c-0.6-0.1-1.1-0.1-1.7-0.3c0.1,0,0.2,0,0.3,0c-0.8-0.2-1.4-0.2-2.2-0.4
	c0.7,0.1,1.5,0.2,1.7,0.2c-0.7-0.1-1.3-0.2-1.9-0.3c-0.3-0.1,0-0.1-0.3-0.1c-0.4-0.1-0.2,0-0.3,0c-1.2-0.2-1.9-0.1-3.2-0.4
	c0.2,0,0.1,0,0,0c-2.4-0.2-4.7-0.3-6.7-0.4c-0.6,0-1.1,0-1.7,0c-2.2,0-5.3,0.1-6.9,0.3c2-0.1,3.3-0.3,5.2-0.2c0.1,0,0.1,0,0.2,0
	c1,0,1.1-0.1,2.3,0c0,0-0.2,0-0.1,0c0.3,0,0.6,0,0.9,0c1.1,0.1,2,0,3.2,0.2c0.5,0,1.2,0.1,1.6,0.1c1.4,0.1,2.7,0.2,4.2,0.5
	c-1.1-0.1-1.9-0.2-2.9-0.2c0.9,0.1,1.7,0.2,2.6,0.4c-0.3,0-0.6,0-0.9-0.1c-0.8,0-2.6-0.2-4-0.4c0-0.1,0.5,0,0.5-0.1
	c-0.4,0-1.2-0.1-1.6-0.1c-0.2,0-0.2,0-0.3,0.1c-0.7,0.1-2,0-2.8,0.1c0.1,0,0,0.1-0.4,0.1c0,0,0,0.1-0.1,0.1
	c-1.9,0.1-3.5,0.2-5.6,0.2c-1,0.1-3.2,0.1-4.8,0.1c-0.3,0,0.1-0.1-0.2-0.1c-0.9,0.1-2.1,0.4-2.7,0.5c-0.1,0,0,0-0.2-0.1
	c-0.1,0.1-1,0-0.7,0.1c0.2,0,0.3-0.1,0.6,0c0,0.1-0.6,0.1-1,0.1c-0.1,0,0-0.1,0-0.1c-0.1,0-0.2,0-0.4,0c0.1,0,0.2,0,0.1,0.1
	c-0.3,0.1-0.9,0.1-1.1,0c-0.5,0-1.3,0.1-1.2,0.1c-0.3,0-0.6,0-0.8,0c0.2,0,0.4,0,0.5,0.1c-0.3,0-0.4,0.1-0.7,0.1
	c-0.2-0.1,0.6,0,0.4-0.1c-0.8,0-1.6,0.1-2.5,0.2c-0.7,0.1-1.5,0.1-1.8,0.2c0.3,0,0.6,0,0.6,0c0.1,0,0.3,0,0.4,0
	c0.2-0.1,0.5-0.1,0.6-0.1c0.1,0,0.3,0,0.4,0c-0.5,0.1-1.2,0.2-2.2,0.2c-0.3,0-1.3,0.1-1.5,0.2c0.4,0,0.8-0.1,1.5-0.1
	c-1,0.1-2,0.2-2.8,0.3c-0.1,0-0.2,0-0.3,0c-0.2,0-0.4,0-0.6,0c0.3,0,0.1,0.1,0.1,0.1c-0.9,0.1-2,0.2-2.9,0.3c-0.3,0,0,0-0.2-0.1
	c-0.5,0-1.8,0.1-1.3,0.2c0.2,0,0.4-0.1,0.6,0c-0.9,0.1-2.6,0.4-3.5,0.4c-0.2,0,0.3,0,0.1,0c-0.6,0.1-1.2,0.1-1.3,0.2
	c-0.9,0.1-2.6,0.3-2.9,0.5c0.7-0.1,1.1-0.2,1.7-0.2c-0.6,0.1-1.8,0.3-1.7,0.4c-2,0.3-3.8,0.6-6,1c-0.2,0,0.2-0.1,0-0.1
	c-3.7,0.7-6.3,1.6-9.9,2.3c0.7-0.2,1.4-0.5,2-0.7c-0.3,0.1-0.6,0.2-0.7,0.2c-0.1,0-0.2,0-0.3,0c0.5,0-1,0.2-1,0.3
	c-0.3,0-0.7,0.2-1,0.2c-0.5,0.2-2,0.5-2.7,0.7c0.1,0,0.4,0,0.3,0c-0.1,0-0.3,0-0.5,0.1c-0.2,0.1-2.3,0.6-3.1,0.9
	c-0.3,0.1-0.7,0.2-1,0.2c0.5-0.1,0.8-0.3,1.4-0.4c-1.6,0.3-2,0.6-3,0.8c-0.3,0,0.3-0.1,0,0c-0.7,0.2-1.4,0.4-2.4,0.7
	c-0.1,0-0.2,0.1-0.4,0.2c-0.1,0-0.5,0.1-0.4,0.1c-0.1,0.1-2.3,0.6-3,0.8c0,0,0.5-0.2,0.5-0.2c-0.5,0.1-0.7,0.2-1.2,0.3
	c-0.2,0.2-1.8,0.5-3.1,0.8c-0.1,0,0.3-0.1,0.2-0.1c-1,0.2-1.2,0.3-1.6,0.4c-0.3,0.1-1.1,0.3-1.7,0.4c-1.8,0.4-3.8,0.9-5.4,1.3
	c-0.3,0.1-1.4,0.3-1.6,0.4C241.5,45.4,244.4,44.7,247,44.1z M243.1,45.3c-0.2,0,0.4-0.1,0.5-0.1C243.6,45.2,243.1,45.3,243.1,45.3z
	 M244.8,44.9c0.4-0.1,1.7-0.4,2.4-0.5C246.4,44.6,245.7,44.8,244.8,44.9z M255.6,42.6c-1.3,0.3-2.8,0.7-4.6,1.1
	c-0.6,0-1.3,0.2-2,0.3c0.6-0.2,2.3-0.5,3.6-0.8c1.1-0.3,2-0.4,2.8-0.6C255.5,42.6,255.6,42.6,255.6,42.6z M253.3,42.9
	c0.4-0.1,0.9-0.3,1.5-0.4c0.6-0.1,1.1-0.4,1.9-0.4C255.2,42.4,254.6,42.6,253.3,42.9z M258.9,41.6c-0.3,0,0.5-0.1,0.3-0.1
	C259.4,41.4,259.1,41.6,258.9,41.6z M259.5,41.4c0.2-0.1,0.7-0.2,1.4-0.4c0.1,0,0.2,0,0.3,0C260.9,41.2,260.1,41.3,259.5,41.4z
	 M263.9,40.4c-0.1,0.1-0.2,0.1-0.6,0.2C263,40.6,263.7,40.5,263.9,40.4z M263,41c0.1-0.2,1-0.3,1.6-0.4c0.5-0.1,1-0.3,1.6-0.4
	C265.3,40.5,264,40.9,263,41z M266.9,40.1c0,0,0.5-0.2,0.6-0.1C267.4,40,267.2,40,266.9,40.1z M267.7,39.9c0.1-0.1,0.5-0.2,0.8-0.2
	C268.6,39.7,268.1,39.8,267.7,39.9z M269.3,39.4c0.1,0,0.2,0,0.3-0.1C269.8,39.4,269.4,39.5,269.3,39.4z M248.1,48.8
	c0-0.1,0.4-0.1,0.6-0.1C248.6,48.8,248.3,48.8,248.1,48.8z M248.3,48.5c-0.1-0.1,0.2-0.1,0.4-0.1c0.1,0,0.1,0.1,0.1,0.1
	C248.4,48.4,248.5,48.4,248.3,48.5z M248.7,48.6c0-0.1,1.1-0.2,1.5-0.2C250,48.5,249.3,48.5,248.7,48.6z M250.4,48.3
	c-0.1-0.1,0.3-0.1,0.4,0C250.6,48.3,250.7,48.3,250.4,48.3z M252.3,48.1c0.2,0,0.4,0,0.5-0.1C252.9,48,252.4,48.2,252.3,48.1z
	 M251.5,48.9c0.2,0,0.4,0,0.6-0.1C252.3,49,251.6,49.1,251.5,48.9z M255.7,49.8c0,0.1-0.5,0.1-0.8,0
	C255.2,49.8,255.5,49.7,255.7,49.8z M254.7,49.8c-0.2,0.1-0.6,0.1-1,0.1C253.8,49.8,254.4,49.9,254.7,49.8z M252.1,50.3
	c-0.2,0.1-0.8,0.1-1.1,0.1c0,0,0,0,0-0.1C251.4,50.3,251.6,50.3,252.1,50.3z M249,50.4c0.2,0,0.4,0,0.6,0c0.1-0.1,0.6-0.1,0.8,0
	C249.9,50.4,249.5,50.5,249,50.4C249.1,50.4,249.1,50.4,249,50.4z M248,50.4c0.4,0,0.6-0.1,0.9,0c0,0,0.1,0.1,0.1,0.1
	c-0.4,0-0.6,0.1-0.9,0C248.1,50.5,248,50.5,248,50.4z M245.6,50.6c-0.1-0.1,0.1-0.1,0.4-0.1C245.9,50.6,245.8,50.7,245.6,50.6z
	 M246.1,50.6C246.1,50.6,246.1,50.6,246.1,50.6c0.7-0.1,1.2-0.2,1.8-0.2c0.1,0,0.3,0.1,0.2,0.1C247.6,50.6,246.6,50.6,246.1,50.6z
	 M248.8,50.7c0.2,0.1,0.4,0,0.6,0C249.3,50.8,249.1,50.7,248.8,50.7c0,0-0.1,0-0.1,0c-0.2,0-0.2,0-0.4,0c0.3-0.1,1.1-0.1,1.8-0.1
	C249.9,50.7,249.1,50.6,248.8,50.7z M250.4,50.7C250.3,50.7,250.3,50.6,250.4,50.7c0.2,0,0.2-0.1,0.4-0.1
	C250.7,50.7,250.5,50.7,250.4,50.7z M251,50.3C251.1,50.4,250.9,50.4,251,50.3c-0.2,0.1-0.4,0.1-0.4,0.1
	C250.5,50.3,250.7,50.3,251,50.3z M250.9,50.5c0.1,0,0.2,0,0.3,0C251.3,50.5,251,50.6,250.9,50.5z M251.9,50.6
	c-0.1,0-0.1-0.1-0.2-0.1c0.1,0,0.5,0,0.3-0.1c0.1,0,0.2,0,0.3,0.1C252,50.5,251.9,50.5,251.9,50.6z M252.4,50.6c0-0.1,0.5,0,0.6-0.1
	C253.2,50.5,252.5,50.5,252.4,50.6z M253.6,50c-0.2,0.1-0.5,0-0.9,0C252.9,50,253.4,49.9,253.6,50z M254,50.5
	C254,50.4,254,50.4,254,50.5c0.1-0.1,0.1,0,0.3,0C254.3,50.5,254.1,50.5,254,50.5z M253.8,50c0.1,0,0.6,0,0.5-0.1
	c0.1,0,0.1,0,0.1,0.1C254.2,50,253.9,50.1,253.8,50z M255.3,50C255.2,50,255.5,50,255.3,50c-0.3,0-0.4,0.2-0.6,0
	c-0.1,0,0,0.1-0.1,0.1c-0.2-0.2,0.5,0,0.4-0.2C255.1,49.9,255.4,49.9,255.3,50C255.7,49.9,255.5,50.1,255.3,50z M255.6,49.9
	c0.1,0,0.3,0,0.3,0C255.8,50,255.6,50,255.6,49.9z M264.6,46c-0.2,0-0.6,0.1-0.6,0C264.1,45.9,264.5,45.9,264.6,46z M264,46.1
	c0.1,0.1-0.2,0.1-0.3,0.1C263.6,46.1,263.8,46.1,264,46.1z M256.1,48.2c0.3-0.1,1-0.3,1.2-0.1C256.9,48.2,256.4,48.2,256.1,48.2z
	 M257.4,48.1c0.4-0.1,1.3-0.3,1.7-0.2C258.5,48,257.9,48,257.4,48.1z M257.9,47.1c0.1-0.3,0.9-0.2,1.3-0.2c0.6-0.1,1.2-0.3,1.9-0.2
	c0,0.2,0.3,0,0.4,0.1c-0.4,0-0.7,0.1-1.1,0c-0.1,0,0,0.1-0.1,0.1C259.5,47,258.7,47,257.9,47.1z M259.1,47.9
	c0.3-0.2,0.6-0.1,1.2-0.2C260.1,47.8,259.6,47.8,259.1,47.9z M260.9,49.1c-0.3,0,0.4-0.2,0.4,0C261.1,49.1,260.9,49,260.9,49.1z
	 M263,48.9c0,0,0-0.1,0-0.1C262.9,48.8,263,48.9,263,48.9c-0.4,0-1,0.2-1.5,0.1c0.3-0.2,1.2,0,1.3-0.3c0.1,0,0.2,0,0.3,0
	c0,0.1,0.1,0,0.3,0.1C263.5,48.9,263.2,48.9,263,48.9z M262.2,46.4c0.3-0.1,0.7-0.2,1.1-0.3C263.3,46.3,262.5,46.4,262.2,46.4z
	 M264.1,48.1c-0.1-0.1,0.3,0,0.4,0C264.6,48.1,264.1,48.1,264.1,48.1z M264.8,48.1c0.2-0.3,1.4-0.3,1.9-0.3
	C266.4,48,265,48.1,264.8,48.1z M265.4,47c0.3-0.1,0.7-0.2,1.1-0.2C266.4,47,265.8,47,265.4,47z M267,46.7c0.2,0,0.1,0,0.4,0
	c0.1,0.1-0.3,0.1-0.3,0.2C267,46.8,267,46.7,267,46.7z M267.7,48.7c-0.1-0.2,0.4-0.1,0.5-0.1C268.2,48.7,267.9,48.6,267.7,48.7z
	 M267.4,46.7c0.1-0.1,1-0.2,1-0.2C268.2,46.6,267.8,46.7,267.4,46.7z M269.2,48.5c0,0,0-0.1,0-0.1c0.1,0,0.2,0,0.2,0.1
	C269.3,48.5,269.2,48.5,269.2,48.5z M267.9,45.6c0-0.2,0.5-0.1,0.8-0.1C268.6,45.6,268,45.7,267.9,45.6z M270.2,48.5
	c0-0.2,0.5-0.2,0.5-0.1C270.5,48.5,270.5,48.5,270.2,48.5z M271,48.4c0-0.1,0-0.1,0-0.1c0.1,0,0,0.1,0.2,0.1
	C271.2,48.4,271.1,48.4,271,48.4z M268.9,45.5c-0.1-0.2,0.5-0.2,0.7-0.1c0.6-0.1,0.7-0.1,1.2-0.2C270.7,45.6,269.4,45.4,268.9,45.5z
	 M341.1,33.3c0,0,0.1,0,0.2,0c-0.1,0-0.2,0-0.3,0C340.8,33.3,341,33.3,341.1,33.3z M335.1,32.3c0.5,0.1,1,0.1,1.5,0.2
	c-0.4,0-0.9,0-1.2-0.1C334.9,32.3,335.7,32.4,335.1,32.3z M330.7,41.1c-0.5,0.1-0.3,0-0.4,0.1C330.7,41.1,330.9,41.1,330.7,41.1z
	 M328.2,41.7c-0.5,0.1-0.4,0.1-0.9,0.2C328.2,41.6,327.6,41.8,328.2,41.7z M332.9,34C333.1,33.9,333.6,34,332.9,34L332.9,34z
	 M326.9,41.8c0.2,0,0.2,0,0.1,0c-0.2,0.1-0.4,0.1-0.5,0.1C326.7,41.8,326.8,41.8,326.9,41.8z M325.8,42c-0.1,0-0.2,0-0.3,0
	C325.8,42,326.2,41.9,325.8,42z M329.3,34c0,0,0.3-0.1,0.6,0C329.7,34.1,329.5,34,329.3,34z M331,34c0.1,0,0.2,0,0.3,0
	c0.1,0,0,0.1-0.1,0.1C331.1,34,331.1,34,331,34z M325.4,42c-0.2,0.1-0.7,0.2-0.2,0C325.4,42,325.5,42,325.4,42z M323.4,42.6
	C323.3,42.6,322.8,42.7,323.4,42.6C323.5,42.5,324.1,42.4,323.4,42.6z M324,42.3c0.5-0.1,0.8-0.2,0.8-0.2
	C324,42.3,324.4,42.2,324,42.3z M332.7,38.7C332.7,38.7,332.7,38.7,332.7,38.7c0-0.1-0.3,0.1-0.1,0c0.1,0,0.2,0,0.3,0
	C332.8,38.7,332.7,38.7,332.7,38.7z M324.9,32c-0.3,0-0.3,0-0.5,0C324.4,31.9,324.7,31.9,324.9,32z M328.4,33.5c-0.1,0-0.2,0-0.3,0
	C328,33.4,328.4,33.4,328.4,33.5z M324.2,31.9c0.2,0-0.3,0-0.4,0C323.6,31.9,324.1,32,324.2,31.9z M328.4,34
	C328.5,34,328.5,34,328.4,34c0,0,0.1,0.1,0.1,0.1c-0.2,0-0.2,0-0.4,0C327.9,34,328.4,34,328.4,34z M328.5,39.5c0.1,0,0.5-0.1,0.4,0
	C328.6,39.5,328.4,39.6,328.5,39.5z M326.4,34.1c0,0.1-0.5,0.1-0.6,0C325.8,34.1,326.2,34.1,326.4,34.1z M325.4,34.1
	c0,0-0.4,0.1-0.5,0C325.2,34.1,325.2,34.1,325.4,34.1z M328.5,39.1C328.4,39.2,328.4,39.2,328.5,39.1c-0.4,0.3-0.4,0-0.8,0.2
	C327.9,39.2,328.1,39.2,328.5,39.1z M326,39.5c-0.2,0-0.5,0.1-0.5,0C325.7,39.6,326.1,39.4,326,39.5z M322.4,40c0.2,0,0.1,0,0.3,0
	c-0.2,0-0.4,0.2-0.5,0.1C322.3,40.1,322.4,40,322.4,40z M321.5,40.2c-0.4,0.1-0.8,0.1-1.2,0.2C320.5,40.3,321.5,40,321.5,40.2z
	 M320.1,40.4c-0.1,0.1-0.2,0.1-0.4,0.1C319.8,40.4,320.1,40.3,320.1,40.4z M319,40.6c0,0-0.4,0.1-0.5,0.1
	C318.7,40.5,318.8,40.6,319,40.6z M316.4,40.9c0,0.1-0.3,0.1-0.4,0.1C316.1,41,316.3,41,316.4,40.9z M314.8,41.1c0,0,0,0.1,0,0.1
	c-0.3,0.1-0.5,0.1-0.8,0.1C314.2,41.2,314.5,41.3,314.8,41.1z M305.5,32.4c0.1,0,0.2,0,0.3,0c-0.1,0-0.3,0-0.4,0
	C305.4,32.4,305.4,32.4,305.5,32.4z M313.6,41.6c0.1,0-0.5,0.2-0.3,0C313.5,41.6,313.4,41.7,313.6,41.6z M312.6,41.8
	c-0.1,0-0.3,0.1-0.2,0C312.5,41.7,312.8,41.7,312.6,41.8z M312.4,41.8c-0.2,0.2-0.3,0-0.6,0.1C311.9,41.8,312.2,41.8,312.4,41.8z
	 M302.6,32.7c0.2,0,0.4,0,0.6,0c-0.3,0-0.4,0-0.7,0.1c-0.1,0-0.3,0-0.4,0C302.2,32.7,302.8,32.8,302.6,32.7z M306.1,44.5
	c-0.2,0.1-0.3,0.1-0.2,0C306,44.5,306.3,44.4,306.1,44.5z M308.1,42.1c0-0.1,0.6-0.2,0.6-0.1C308.5,42.1,308.5,42,308.1,42.1z
	 M306.5,35.8c-0.1,0.1-0.5,0.1-0.7,0.1C305.9,35.9,306.3,35.9,306.5,35.8z M305.8,44.7c-0.5,0.2-0.7,0.1-1.3,0.2
	c0.5,0.1,3.9-0.7,3.4-0.3c-0.4,0.1-0.2,0-0.3,0c-1.6,0.3-3.2,0.5-4.6,0.7c0.4-0.2,0.8-0.2,1.2-0.3c0-0.1-0.8,0.1-1.1,0.1
	C304,44.9,305,44.8,305.8,44.7z M303.7,35.3c0.2,0,0,0,0.2,0.1C303.7,35.4,303.5,35.3,303.7,35.3z M306.3,42.3c0,0-0.1,0.1-0.1,0.1
	c-0.1,0-0.2,0-0.2,0C306,42.3,306.1,42.3,306.3,42.3z M305.5,42.5c-0.1,0-0.2,0-0.3,0C305.3,42.4,305.6,42.4,305.5,42.5z
	 M305.3,42.7c-0.2,0.1-0.4,0.2-0.6,0.1C304.8,42.7,305.1,42.7,305.3,42.7z M304.5,42.8c-0.1,0-0.7,0.2-0.6,0
	C304.1,42.9,304.3,42.8,304.5,42.8z M296.9,33.7c0,0,0.1,0,0.2,0c0,0-0.3,0.1-0.4,0C296.8,33.7,296.7,33.7,296.9,33.7z M302.3,42.9
	c0,0.1-0.2,0.2-0.3,0.1C302.1,43,302.2,42.9,302.3,42.9z M271.3,38.9c0.1-0.1,0.7-0.2,1-0.3C272.2,38.7,271.7,38.8,271.3,38.9z
	 M272.5,38.6c-0.4,0,0.1-0.1,0.2-0.1c0.2-0.1,0.7-0.3,1.2-0.4c0.8-0.2,2.5-0.5,2.5-0.5C276.5,37.6,273.6,38.3,272.5,38.6z
	 M280.1,38.7c0.3,0,0.4,0.1,0.7,0.1c0.5-0.2,1-0.2,1.3-0.4c0.6,0.2,0,0.4-0.8,0.5c0,0-0.1-0.1-0.1-0.1c-0.1,0.2-0.8,0.3-1.6,0.4
	c0-0.1,0.2-0.1,0-0.2c0.3-0.1,0.4-0.1,0.7-0.2C280.2,38.8,280,38.8,280.1,38.7z M283.8,40.2c0,0.1-0.4,0.1-0.7,0.2
	C283.1,40.1,283.6,40.1,283.8,40.2z M283,40.3c0,0.1-0.4,0.1-0.4,0C282.7,40.2,283,40.2,283,40.3z M277.8,39.1
	c0.5-0.1,0.9-0.2,1.3-0.3c0.2,0,0.7-0.2,0.9,0c-0.3,0-0.4,0.1-0.6,0c-0.1,0.1-0.3,0.2-0.5,0.1c0.3,0.2,0.3,0.2,0.3,0.3
	c-0.2,0-0.3,0-0.4-0.1c-0.2-0.1,0.1-0.1,0-0.2c-0.3,0-0.2,0.2-0.6,0.1c-0.3,0.2,0.3,0.1,0.5,0.1c0,0.1-0.1,0.1-0.3,0.1
	c0.1,0.1,0.3-0.1,0.3,0c-0.2,0.1-0.5-0.1-0.9,0C278,39.3,277.8,39.2,277.8,39.1z M274.4,40.1c-0.1,0-0.3,0.1-0.4,0.1
	C273.8,40.1,274.4,39.9,274.4,40.1z M272.9,40.4c0,0,0.1,0,0.1,0.1c0.1,0-0.1-0.1,0-0.1c0.2,0,0.3,0,0.3,0.1c0.1,0,0-0.1,0-0.1
	c0.2,0,0.3,0,0.3,0.1c0.3-0.1,0.6-0.1,0.8-0.2c0.7,0.2,1.5-0.3,2.1,0c-1.4,0.3-1.8,0.2-2.8,0.4c-0.2,0,0.2,0.1-0.1,0.1
	c-0.1-0.2-0.6,0.1-0.8-0.2c-0.4,0.1-0.6,0.1-0.8,0.1c-0.1,0-0.1,0.1,0,0.1c-0.7,0.1-1.6,0.2-2.4,0.4c-0.4,0.1-0.8,0.4-1.4,0.3
	C269.7,41.2,271.4,40.7,272.9,40.4z M273.4,40.7c-0.4,0.2-1.1,0.4-1.9,0.5C272,40.9,272.6,40.9,273.4,40.7z M271,41.2
	c-0.1,0-0.4,0.2-0.5,0C270.5,41.1,270.9,41,271,41.2z M268.3,41.5c-0.3,0.2-1.4,0.5-1.8,0.4C266.8,41.8,267.7,41.6,268.3,41.5z
	 M266.2,42c0.1,0,0.3,0.1,0.2,0.1c-0.2,0-0.4-0.1-0.7,0C265.7,42,266.1,42.1,266.2,42z M262,43c-0.2,0.1-0.3,0-0.5,0.1
	C261.4,43,261.9,42.9,262,43z M256.9,44c0,0.1-0.5,0.1-0.8,0.2C256.2,44.2,256.6,44,256.9,44z M255.6,44.3c-0.1,0-0.3,0-0.4,0
	C255.2,44.3,255.6,44.2,255.6,44.3z M255,44.4c0.3,0-0.4,0.1-0.1,0.1c-0.5,0-0.8,0.2-1.1,0.1C254.4,44.5,254.6,44.4,255,44.4z
	 M251.6,44.4c-0.2,0-0.4,0.1-0.5,0C251.3,44.4,251.5,44.4,251.6,44.4z M253.6,44.6c-0.1,0.1-1.1,0.3-1.7,0.3
	C252.5,44.8,253.2,44.7,253.6,44.6z M250.5,45.9c0.3-0.1,0.7-0.2,1.1-0.2C251.3,45.8,250.9,45.9,250.5,45.9z M251.6,45.7
	c-0.1-0.1,0.3-0.1,0.4-0.1C252.1,45.7,251.7,45.7,251.6,45.7z M250,45.6c0.2,0,0.8-0.2,1.2-0.2c0.1,0,0.1,0,0.2,0
	C251.1,45.4,250.4,45.6,250,45.6z M251.5,45.1c-0.3,0-0.3,0.1-0.6,0C251.2,45.1,251.4,45,251.5,45.1z M256.1,44.7
	c-0.3,0-0.5,0.1-0.7,0c-1,0.3-2.6,0.4-3.6,0.6c-0.1-0.1,0.4-0.1,0.8-0.2c0.8,0,2.3-0.5,3.2-0.4c0,0,0-0.1,0.3-0.1
	C255.7,44.6,256.2,44.6,256.1,44.7z M256.2,44.6c0,0,0.1-0.1,0-0.1c0.5,0,0.9-0.2,1.5-0.2C257.3,44.4,256.7,44.5,256.2,44.6z
	 M257.9,44.2c0.2,0,0.4,0,0.7-0.1C258.6,44.2,258.1,44.3,257.9,44.2z M259.3,44.1c-0.1,0-0.3,0-0.4,0c-0.1-0.1,0.2,0,0.4-0.1
	C259.3,44,259.3,44,259.3,44.1z M268.3,43.5c0.2-0.1,0.5-0.1,0.6-0.2C268.8,43.5,268.5,43.5,268.3,43.5z M269,43.3
	c0.3,0,0.6-0.2,1-0.2C269.9,43.2,269.4,43.5,269,43.3z M270.1,43.1c0.1-0.1,0.6-0.1,0.8-0.1C271,43.1,270.2,43.3,270.1,43.1z
	 M271.4,43.2c-0.2,0-0.2-0.1-0.3-0.2c0.1-0.1,0.4-0.1,0.6-0.1C271.8,43.1,271.2,43.1,271.4,43.2z M272,42.9c0.5-0.1,1-0.2,1.4-0.1
	C273,42.8,272.3,43.1,272,42.9z M273.8,42.7c0-0.1,0.3-0.1,0.4-0.1C274.2,42.7,273.9,42.8,273.8,42.7z M280.3,46.7
	c0-0.1,0.3-0.1,0.3-0.2c0.1,0,0.1,0,0.1,0.1C280.6,46.7,280.4,46.7,280.3,46.7z M276,41.7c0.7,0.1,1.8-0.3,2.5-0.2
	c-1.8,0.5-4.4,0.7-6.5,0.9c-0.4,0-0.8,0.2-1.1,0.2c-0.8,0-1.5-0.1-2.4,0.2c0.3-0.2,1.2-0.3,1.6-0.5c-2.8,0.3-5.2,0.9-7.7,1.5
	c-0.1,0-0.1-0.1,0-0.1c-0.9,0.1-2,0.3-2.9,0.5c-0.2-0.1,0.1-0.1-0.1-0.2c0.6-0.1,1-0.2,1.5-0.3c0,0,0,0.1-0.1,0.1
	c0.5,0,1.3-0.4,1.8-0.2c-0.1-0.2,0.5-0.2,0.6-0.4c-0.5,0-1.2,0.2-1.6,0.2c0.4-0.2,1.2-0.2,1.7-0.4c0.2,0.1,0,0.1,0,0.1
	c0.2,0,0.1-0.1,0.3-0.1c-0.1,0-0.3-0.1-0.4-0.1c0.2-0.1,1-0.1,1.4-0.3c-0.1,0-0.5,0-0.2-0.1c-0.2-0.1-0.7,0.2-0.9,0.1
	c0.3-0.2,1.3-0.3,2-0.4c0.3,0.2-0.5,0.2-0.8,0.2c0.1,0.1,0.3,0,0.5,0.1c0.9-0.3,2.1-0.3,2.8-0.5c-0.2,0-0.5,0.1-0.8,0.1
	c0-0.1,0.6-0.1,0.6-0.2c1.1,0.1,2-0.3,3.2-0.5c-0.6,0.3-2,0.5-2.4,0.7c0.6-0.2,2-0.3,3-0.5c0.2,0.1,0.1,0.1,0,0.2
	c0.5-0.2,1.7-0.4,2.3-0.6c-0.6,0.4-2.1,0.7-3,1c0.9-0.1,1.6,0,2.5-0.1c0.1,0,0.2-0.1,0.2-0.2c1.8-0.2,3.7-0.8,5.3-0.8
	C277.9,41.3,277.2,41.5,276,41.7z M276.9,39.8c-0.1-0.1,0.4-0.1,0.4-0.2C277.6,39.7,277.1,39.9,276.9,39.8z M276.9,39.5
	c0.1,0.1,0.2,0.1,0.3,0.1c0.1,0.1-0.4,0.1-0.6,0.2c-0.1-0.1-0.1-0.2,0.1-0.2c-0.5,0.1-1.5,0.4-2.1,0.5c0.7-0.3,2.2-0.6,3-0.8
	c0.1,0.1,0.1,0.2-0.1,0.3c-0.1,0-0.1-0.1-0.2-0.2c-0.2,0.1,0.4,0.2,0.1,0.3c-0.2,0-0.3-0.1-0.3-0.2C277.1,39.4,277,39.4,276.9,39.5z
	 M281.3,46.5c-0.1,0,0-0.2,0.2-0.2C281.3,46.4,281.3,46.4,281.3,46.5z M285.5,45.7c0-0.2,0.3-0.1,0.4-0.1
	C285.9,45.7,285.6,45.7,285.5,45.7z M286.1,45.7c-0.1,0-0.1,0-0.2,0c0-0.1,0.1-0.1,0.3-0.1C286.2,45.6,286.1,45.6,286.1,45.7z
	 M282.6,40.8c-0.9,0.2-2.2,0.3-3.4,0.3c0-0.2-0.2-0.1-0.3-0.2c2-0.3,3.8-0.6,6-0.7C284.4,40.6,283.3,40.7,282.6,40.8z M284.6,40
	c0.2,0,0.4-0.1,0.4,0.1C284.9,40.1,284.7,40.2,284.6,40z M282.6,38.6c0.3-0.2-0.2,0-0.3-0.1c0.8-0.1,1.1-0.1,1.6-0.1
	C283.6,38.4,283.1,38.5,282.6,38.6z M287.3,45.5c0.1-0.1,0.4-0.2,0.5-0.2C287.7,45.4,287.4,45.5,287.3,45.5z M288.6,39.9
	c-0.2,0.3,0.8,0.2,0.8,0.2s-1.4,0.3-2.3,0.3C287.3,40.2,288.2,40.2,288.6,39.9z M285.4,37.7c0-0.1,0.3-0.1,0.5-0.1
	C286,37.7,285.6,37.7,285.4,37.7z M289,45.1c-0.1,0.2-0.3,0.1-0.5,0.1C288.6,45.1,288.9,45.1,289,45.1z M288.4,45.3
	c-0.1,0-0.2,0-0.2,0c0-0.1,0.1-0.1,0.1-0.2C288.3,45.2,288.5,45.2,288.4,45.3z M287.4,47c-0.2,0.1-0.6,0.1-0.7,0.1
	C286.9,47,287.2,47,287.4,47z M301.2,43.1c-0.1,0-0.1,0-0.2,0c0,0,0,0,0,0.1c-0.2,0.1,0-0.2-0.2-0.1
	C300.9,42.9,301.4,42.9,301.2,43.1z M292.7,33.8c0.1,0,0.2,0,0.3,0c-0.3,0-0.4,0-0.7,0.1C292.1,33.8,292.7,33.8,292.7,33.8z
	 M300.3,43.5c-0.1,0-0.2,0.1-0.4,0.1C299.9,43.4,300.4,43.4,300.3,43.5z M299.9,43.5c-0.1,0.2-0.3,0-0.6,0.1
	C299.3,43.5,299.8,43.5,299.9,43.5z M298.5,44.2c0.2,0.1,1.3-0.2,1.5-0.1c-0.2,0.2-0.8,0-1,0.3c-1,0.2-1.7,0.3-1.9,0
	C297.7,44.3,298.1,44.4,298.5,44.2z M297.9,45.8c0,0-0.1,0-0.1,0c-0.6,0.1-0.3,0,0,0C297.8,45.8,297.8,45.8,297.9,45.8
	C297.8,45.8,297.8,45.8,297.9,45.8z M298.8,44.6c-0.3,0.2-0.5,0.1-0.7,0.1C298.3,44.7,298.6,44.7,298.8,44.6z M298,44.7
	c-0.1,0.1-0.3,0.1-0.3,0.1C297.8,44.7,298,44.8,298,44.7z M297.4,44.8c-0.2,0.1-0.5,0.1-0.6,0.1C296.9,44.9,297.3,44.8,297.4,44.8z
	 M297,44.7c-0.5,0.2-1.3,0.3-1.5,0.2C296.1,44.8,296.5,44.7,297,44.7z M298.2,45.8c-0.8,0.4-1.4,0.4-2.2,0.6c-0.1,0-0.2,0.1-0.4,0.1
	c-0.5,0-1.8,0.3-2.4,0.3c-0.6,0-1.8,0.2-2.5,0.3c-1,0.1-2.7,0.2-4,0.4c0-0.1,0.2-0.2-0.1-0.2c1.4-0.4,3-0.3,4.4-0.7
	c-0.2,0.1-0.1,0.1-0.1,0.1C293.4,46.4,295.9,46.2,298.2,45.8z M292.4,44.3c0.3,0,0.5-0.1,0.7,0c-0.1,0.1-0.5,0-0.7,0.2
	C292.4,44.5,292.4,44.4,292.4,44.3z M293.3,44.3c0.3-0.2,0.6-0.1,0.9-0.2C293.9,44.3,293.5,44.3,293.3,44.3z M294.3,44.2
	c0.1-0.1,0.5-0.2,0.6-0.1c-0.1,0.2-0.4,0-0.5,0.2C294.4,44.2,294.4,44.1,294.3,44.2z M295.1,43.9c0.2,0,0.4-0.1,0.4,0
	C295.3,44,295.1,44.1,295.1,43.9z M291.2,35.7c0,0.1-0.1,0.1,0.1,0.2c-1.4,0-2.7,0.5-4.2,0.5c-0.3,0,0-0.1-0.1-0.1
	c-0.3,0-0.7,0.2-1,0C287.6,36,289.5,35.7,291.2,35.7z M289.9,46.7c-0.3,0.1-0.5,0.1-0.8,0.1C289.5,46.8,289.5,46.8,289.9,46.7z
	 M283.8,35.6c-2,0.5-4.5,0.8-6.9,1.3C279.2,36.3,281.5,35.9,283.8,35.6z M278.6,37.5c0.2,0,0,0.1,0,0.1c0.2,0,0.5-0.2,0.8-0.1
	c0.2,0.1-0.3,0.1-0.5,0.2c0.7,0.1,1.9-0.4,2.4-0.3c-2.3,0.5-4.5,0.7-6.8,1.2c0.1-0.2,1.1-0.3,1-0.4C276.3,38,277.4,37.5,278.6,37.5z
	 M266.8,38.8c-0.3,0.1-0.9,0.3-1.4,0.4C265.3,39.1,266.3,38.9,266.8,38.8z M261,40.4c0.1,0,0.1,0,0.2,0c0,0-0.2,0.1-0.4,0.1
	C260.6,40.5,260.8,40.5,261,40.4z M259.8,40.8c0.1-0.1,0.4-0.2,0.9-0.3c0.3,0-0.4,0.1-0.3,0.1c2.8-0.6,5.1-1.3,7.7-1.8
	c1.8-0.4,4-1,5.9-1.4c0.6-0.1,1.3-0.3,1.9-0.3c-0.5,0.1-1.1,0.3-1.6,0.3c0,0,0,0,0,0c-0.2,0.1-0.4,0-0.6,0.1
	c-4.7,1.1-9.4,2.2-14.5,3.5c-0.5,0-1.2,0.3-1.5,0.3C257.9,41.3,259,41,259.8,40.8z"/>
<path class="st0" d="M279.1,11.5c-0.2,0-0.4-0.2-0.4-0.4V0.4c0-0.2,0.2-0.4,0.4-0.4s0.4,0.2,0.4,0.4v10.7
	C279.5,11.4,279.3,11.5,279.1,11.5z"/>
<path class="st0" d="M279.3,1.6c0,0,2.4-0.6,4.4-0.1c2,0.4,1,1.8,3,2c2,0.1,6.9,0.6,6.9,0.6s-6.3,0.9-7.5,0.8
	c-1.4-0.1-1.4-1.2-3-1.3c-1.6-0.1-3.9,0.2-3.9,0.2"/>
</svg>
